<mxfile host="app.diagrams.net" modified="2020-09-30T13:12:00.487Z" agent="5.0 (Windows NT 10.0; Win64; x64) AppleWebKit/537.36 (KHTML, like Gecko) Chrome/85.0.4183.121 Safari/537.36" etag="NgE8ryrIdeDV0BDGBxxK" version="13.7.6" type="github">
  <diagram id="LBwsWg3DHm3VI3vRRIfu" name="Page-1">
    <mxGraphModel dx="1749" dy="836" grid="1" gridSize="10" guides="1" tooltips="1" connect="1" arrows="1" fold="1" page="1" pageScale="1" pageWidth="827" pageHeight="1169" background="#ffffff" math="0" shadow="1">
      <root>
        <mxCell id="0" />
        <mxCell id="1" parent="0" />
        <mxCell id="sRFEvAHlBmAmTLRkeG5V-6" style="edgeStyle=orthogonalEdgeStyle;rounded=0;orthogonalLoop=1;jettySize=auto;html=1;exitX=0.5;exitY=1;exitDx=0;exitDy=0;entryX=0.5;entryY=0;entryDx=0;entryDy=0;fontFamily=Verdana;" parent="1" source="sRFEvAHlBmAmTLRkeG5V-1" target="sRFEvAHlBmAmTLRkeG5V-3" edge="1">
          <mxGeometry relative="1" as="geometry" />
        </mxCell>
        <mxCell id="sRFEvAHlBmAmTLRkeG5V-1" value="&lt;font style=&quot;font-size: 23px&quot;&gt;Início&lt;/font&gt;" style="ellipse;whiteSpace=wrap;html=1;fontFamily=Verdana;" parent="1" vertex="1">
          <mxGeometry x="85" y="10" width="95" height="50" as="geometry" />
        </mxCell>
        <mxCell id="txzuhLuvdfgNLgQ4ZMH0-2" value="" style="edgeStyle=orthogonalEdgeStyle;rounded=0;orthogonalLoop=1;jettySize=auto;html=1;" parent="1" source="sRFEvAHlBmAmTLRkeG5V-2" target="txzuhLuvdfgNLgQ4ZMH0-1" edge="1">
          <mxGeometry relative="1" as="geometry" />
        </mxCell>
        <mxCell id="sRFEvAHlBmAmTLRkeG5V-2" value="R[1] &amp;lt;= ch" style="rounded=1;whiteSpace=wrap;html=1;fontFamily=Verdana;" parent="1" vertex="1">
          <mxGeometry x="85" y="220" width="95" height="40" as="geometry" />
        </mxCell>
        <mxCell id="sRFEvAHlBmAmTLRkeG5V-7" style="edgeStyle=orthogonalEdgeStyle;rounded=0;orthogonalLoop=1;jettySize=auto;html=1;exitX=1;exitY=0.5;exitDx=0;exitDy=0;fontFamily=Verdana;" parent="1" source="sRFEvAHlBmAmTLRkeG5V-3" edge="1">
          <mxGeometry relative="1" as="geometry">
            <mxPoint x="133" y="70" as="targetPoint" />
          </mxGeometry>
        </mxCell>
        <mxCell id="sRFEvAHlBmAmTLRkeG5V-8" style="edgeStyle=orthogonalEdgeStyle;rounded=0;orthogonalLoop=1;jettySize=auto;html=1;exitX=0.5;exitY=1;exitDx=0;exitDy=0;entryX=0.5;entryY=0;entryDx=0;entryDy=0;fontFamily=Verdana;" parent="1" source="sRFEvAHlBmAmTLRkeG5V-3" target="sRFEvAHlBmAmTLRkeG5V-2" edge="1">
          <mxGeometry relative="1" as="geometry" />
        </mxCell>
        <mxCell id="sRFEvAHlBmAmTLRkeG5V-3" value="RUN" style="rhombus;whiteSpace=wrap;html=1;fontFamily=Verdana;" parent="1" vertex="1">
          <mxGeometry x="85" y="90" width="95" height="80" as="geometry" />
        </mxCell>
        <mxCell id="sRFEvAHlBmAmTLRkeG5V-9" value="NÃO" style="text;html=1;strokeColor=none;fillColor=none;align=center;verticalAlign=middle;whiteSpace=wrap;rounded=0;fontFamily=Verdana;" parent="1" vertex="1">
          <mxGeometry x="200" y="110" width="40" height="20" as="geometry" />
        </mxCell>
        <mxCell id="sRFEvAHlBmAmTLRkeG5V-10" value="SIM" style="text;html=1;strokeColor=none;fillColor=none;align=center;verticalAlign=middle;whiteSpace=wrap;rounded=0;fontFamily=Verdana;" parent="1" vertex="1">
          <mxGeometry x="130" y="190" width="40" height="20" as="geometry" />
        </mxCell>
        <mxCell id="sRFEvAHlBmAmTLRkeG5V-15" style="edgeStyle=orthogonalEdgeStyle;rounded=0;orthogonalLoop=1;jettySize=auto;html=1;exitX=0.5;exitY=1;exitDx=0;exitDy=0;entryX=0.5;entryY=0;entryDx=0;entryDy=0;fontFamily=Verdana;" parent="1" source="sRFEvAHlBmAmTLRkeG5V-11" target="sRFEvAHlBmAmTLRkeG5V-14" edge="1">
          <mxGeometry relative="1" as="geometry" />
        </mxCell>
        <mxCell id="sRFEvAHlBmAmTLRkeG5V-11" value="LED &amp;lt;= R[1]" style="rounded=1;whiteSpace=wrap;html=1;fontFamily=Verdana;" parent="1" vertex="1">
          <mxGeometry x="85" y="345" width="95" height="40" as="geometry" />
        </mxCell>
        <mxCell id="sRFEvAHlBmAmTLRkeG5V-16" style="edgeStyle=orthogonalEdgeStyle;rounded=0;orthogonalLoop=1;jettySize=auto;html=1;exitX=1;exitY=0.5;exitDx=0;exitDy=0;fontFamily=Verdana;" parent="1" source="sRFEvAHlBmAmTLRkeG5V-14" edge="1">
          <mxGeometry relative="1" as="geometry">
            <mxPoint x="133" y="405" as="targetPoint" />
          </mxGeometry>
        </mxCell>
        <mxCell id="sRFEvAHlBmAmTLRkeG5V-18" style="edgeStyle=orthogonalEdgeStyle;rounded=0;orthogonalLoop=1;jettySize=auto;html=1;exitX=0.5;exitY=1;exitDx=0;exitDy=0;entryX=0.5;entryY=0;entryDx=0;entryDy=0;fontFamily=Verdana;" parent="1" source="sRFEvAHlBmAmTLRkeG5V-14" target="sRFEvAHlBmAmTLRkeG5V-17" edge="1">
          <mxGeometry relative="1" as="geometry" />
        </mxCell>
        <mxCell id="sRFEvAHlBmAmTLRkeG5V-14" value="RUN" style="rhombus;whiteSpace=wrap;html=1;fontFamily=Verdana;" parent="1" vertex="1">
          <mxGeometry x="85" y="425" width="95" height="80" as="geometry" />
        </mxCell>
        <mxCell id="sRFEvAHlBmAmTLRkeG5V-17" value="1" style="shape=offPageConnector;whiteSpace=wrap;html=1;fontFamily=Verdana;" parent="1" vertex="1">
          <mxGeometry x="113.75" y="545" width="37.5" height="40" as="geometry" />
        </mxCell>
        <mxCell id="sRFEvAHlBmAmTLRkeG5V-19" value="SIM" style="text;html=1;strokeColor=none;fillColor=none;align=center;verticalAlign=middle;whiteSpace=wrap;rounded=0;fontFamily=Verdana;" parent="1" vertex="1">
          <mxGeometry x="130" y="515" width="40" height="20" as="geometry" />
        </mxCell>
        <mxCell id="sRFEvAHlBmAmTLRkeG5V-20" value="NÃO" style="text;html=1;strokeColor=none;fillColor=none;align=center;verticalAlign=middle;whiteSpace=wrap;rounded=0;fontFamily=Verdana;" parent="1" vertex="1">
          <mxGeometry x="200" y="400" width="40" height="20" as="geometry" />
        </mxCell>
        <mxCell id="txzuhLuvdfgNLgQ4ZMH0-9" value="" style="edgeStyle=orthogonalEdgeStyle;rounded=0;orthogonalLoop=1;jettySize=auto;html=1;" parent="1" source="sRFEvAHlBmAmTLRkeG5V-22" target="txzuhLuvdfgNLgQ4ZMH0-7" edge="1">
          <mxGeometry relative="1" as="geometry" />
        </mxCell>
        <mxCell id="sRFEvAHlBmAmTLRkeG5V-22" value="R[2] &amp;lt;= ch" style="rounded=1;whiteSpace=wrap;html=1;fontFamily=Verdana;" parent="1" vertex="1">
          <mxGeometry x="280" y="80" width="95" height="40" as="geometry" />
        </mxCell>
        <mxCell id="sRFEvAHlBmAmTLRkeG5V-23" style="edgeStyle=orthogonalEdgeStyle;rounded=0;orthogonalLoop=1;jettySize=auto;html=1;exitX=0.5;exitY=1;exitDx=0;exitDy=0;entryX=0.5;entryY=0;entryDx=0;entryDy=0;fontFamily=Verdana;" parent="1" source="sRFEvAHlBmAmTLRkeG5V-24" target="sRFEvAHlBmAmTLRkeG5V-27" edge="1">
          <mxGeometry relative="1" as="geometry" />
        </mxCell>
        <mxCell id="sRFEvAHlBmAmTLRkeG5V-24" value="LED &amp;lt;= R[2]" style="rounded=1;whiteSpace=wrap;html=1;fontFamily=Verdana;" parent="1" vertex="1">
          <mxGeometry x="280" y="250" width="95" height="40" as="geometry" />
        </mxCell>
        <mxCell id="sRFEvAHlBmAmTLRkeG5V-25" style="edgeStyle=orthogonalEdgeStyle;rounded=0;orthogonalLoop=1;jettySize=auto;html=1;exitX=1;exitY=0.5;exitDx=0;exitDy=0;fontFamily=Verdana;" parent="1" source="sRFEvAHlBmAmTLRkeG5V-27" edge="1">
          <mxGeometry relative="1" as="geometry">
            <mxPoint x="328" y="310" as="targetPoint" />
          </mxGeometry>
        </mxCell>
        <mxCell id="sRFEvAHlBmAmTLRkeG5V-26" style="edgeStyle=orthogonalEdgeStyle;rounded=0;orthogonalLoop=1;jettySize=auto;html=1;exitX=0.5;exitY=1;exitDx=0;exitDy=0;entryX=0.5;entryY=0;entryDx=0;entryDy=0;fontFamily=Verdana;" parent="1" source="sRFEvAHlBmAmTLRkeG5V-27" target="sRFEvAHlBmAmTLRkeG5V-28" edge="1">
          <mxGeometry relative="1" as="geometry" />
        </mxCell>
        <mxCell id="sRFEvAHlBmAmTLRkeG5V-27" value="RUN" style="rhombus;whiteSpace=wrap;html=1;fontFamily=Verdana;" parent="1" vertex="1">
          <mxGeometry x="280" y="330" width="95" height="80" as="geometry" />
        </mxCell>
        <mxCell id="sRFEvAHlBmAmTLRkeG5V-28" value="2" style="shape=offPageConnector;whiteSpace=wrap;html=1;fontFamily=Verdana;" parent="1" vertex="1">
          <mxGeometry x="308.75" y="450" width="37.5" height="40" as="geometry" />
        </mxCell>
        <mxCell id="sRFEvAHlBmAmTLRkeG5V-29" value="SIM" style="text;html=1;strokeColor=none;fillColor=none;align=center;verticalAlign=middle;whiteSpace=wrap;rounded=0;fontFamily=Verdana;" parent="1" vertex="1">
          <mxGeometry x="325" y="420" width="40" height="20" as="geometry" />
        </mxCell>
        <mxCell id="sRFEvAHlBmAmTLRkeG5V-30" value="NÃO" style="text;html=1;strokeColor=none;fillColor=none;align=center;verticalAlign=middle;whiteSpace=wrap;rounded=0;fontFamily=Verdana;" parent="1" vertex="1">
          <mxGeometry x="360" y="350" width="40" height="20" as="geometry" />
        </mxCell>
        <mxCell id="sRFEvAHlBmAmTLRkeG5V-63" style="edgeStyle=orthogonalEdgeStyle;rounded=0;orthogonalLoop=1;jettySize=auto;html=1;exitX=0.5;exitY=1;exitDx=0;exitDy=0;entryX=0.5;entryY=0;entryDx=0;entryDy=0;fontFamily=Verdana;" parent="1" source="sRFEvAHlBmAmTLRkeG5V-62" target="sRFEvAHlBmAmTLRkeG5V-22" edge="1">
          <mxGeometry relative="1" as="geometry" />
        </mxCell>
        <mxCell id="sRFEvAHlBmAmTLRkeG5V-62" value="1" style="shape=offPageConnector;whiteSpace=wrap;html=1;fontFamily=Verdana;" parent="1" vertex="1">
          <mxGeometry x="308.75" y="10" width="37.5" height="40" as="geometry" />
        </mxCell>
        <mxCell id="sRFEvAHlBmAmTLRkeG5V-108" value="" style="endArrow=none;html=1;" parent="1" edge="1">
          <mxGeometry width="50" height="50" relative="1" as="geometry">
            <mxPoint x="620" y="520" as="sourcePoint" />
            <mxPoint x="620" as="targetPoint" />
          </mxGeometry>
        </mxCell>
        <mxCell id="sRFEvAHlBmAmTLRkeG5V-109" value="" style="endArrow=none;html=1;" parent="1" edge="1">
          <mxGeometry width="50" height="50" relative="1" as="geometry">
            <mxPoint x="440" y="520" as="sourcePoint" />
            <mxPoint x="439.99999999999994" as="targetPoint" />
          </mxGeometry>
        </mxCell>
        <mxCell id="sRFEvAHlBmAmTLRkeG5V-110" value="" style="endArrow=none;html=1;fontFamily=Verdana;" parent="1" edge="1">
          <mxGeometry width="50" height="50" relative="1" as="geometry">
            <mxPoint x="980" y="520" as="sourcePoint" />
            <mxPoint x="980" y="10" as="targetPoint" />
          </mxGeometry>
        </mxCell>
        <mxCell id="sRFEvAHlBmAmTLRkeG5V-111" value="" style="endArrow=none;html=1;fontFamily=Verdana;" parent="1" edge="1">
          <mxGeometry width="50" height="50" relative="1" as="geometry">
            <mxPoint x="1160" y="520" as="sourcePoint" />
            <mxPoint x="1160" y="20" as="targetPoint" />
          </mxGeometry>
        </mxCell>
        <mxCell id="4zHIRzdhftlPSaTAwRZH-2" value="" style="endArrow=none;html=1;fontFamily=Verdana;" parent="1" edge="1">
          <mxGeometry width="50" height="50" relative="1" as="geometry">
            <mxPoint x="1340" y="520" as="sourcePoint" />
            <mxPoint x="1339.9999999999995" y="20" as="targetPoint" />
          </mxGeometry>
        </mxCell>
        <mxCell id="4zHIRzdhftlPSaTAwRZH-266" value="" style="edgeStyle=orthogonalEdgeStyle;rounded=0;orthogonalLoop=1;jettySize=auto;html=1;fontFamily=Verdana;" parent="1" source="4zHIRzdhftlPSaTAwRZH-228" target="4zHIRzdhftlPSaTAwRZH-260" edge="1">
          <mxGeometry relative="1" as="geometry" />
        </mxCell>
        <mxCell id="4zHIRzdhftlPSaTAwRZH-228" value="16" style="shape=offPageConnector;whiteSpace=wrap;html=1;fontFamily=Verdana;" parent="1" vertex="1">
          <mxGeometry x="38.75" y="1800.5" width="37.5" height="40" as="geometry" />
        </mxCell>
        <mxCell id="4zHIRzdhftlPSaTAwRZH-259" style="edgeStyle=orthogonalEdgeStyle;rounded=0;orthogonalLoop=1;jettySize=auto;html=1;exitX=0.5;exitY=1;exitDx=0;exitDy=0;entryX=0.5;entryY=0;entryDx=0;entryDy=0;fontFamily=Verdana;" parent="1" source="4zHIRzdhftlPSaTAwRZH-260" target="4zHIRzdhftlPSaTAwRZH-263" edge="1">
          <mxGeometry relative="1" as="geometry" />
        </mxCell>
        <mxCell id="4zHIRzdhftlPSaTAwRZH-260" value="LED &amp;lt;= R[1]" style="rounded=1;whiteSpace=wrap;html=1;fontFamily=Verdana;" parent="1" vertex="1">
          <mxGeometry x="10" y="1880.5" width="95" height="40" as="geometry" />
        </mxCell>
        <mxCell id="4zHIRzdhftlPSaTAwRZH-261" style="edgeStyle=orthogonalEdgeStyle;rounded=0;orthogonalLoop=1;jettySize=auto;html=1;exitX=1;exitY=0.5;exitDx=0;exitDy=0;fontFamily=Verdana;" parent="1" source="4zHIRzdhftlPSaTAwRZH-263" edge="1">
          <mxGeometry relative="1" as="geometry">
            <mxPoint x="58" y="1940.5" as="targetPoint" />
          </mxGeometry>
        </mxCell>
        <mxCell id="4zHIRzdhftlPSaTAwRZH-262" style="edgeStyle=orthogonalEdgeStyle;rounded=0;orthogonalLoop=1;jettySize=auto;html=1;exitX=0.5;exitY=1;exitDx=0;exitDy=0;entryX=0.5;entryY=0;entryDx=0;entryDy=0;fontFamily=Verdana;" parent="1" source="4zHIRzdhftlPSaTAwRZH-263" edge="1">
          <mxGeometry relative="1" as="geometry">
            <mxPoint x="57.5" y="2080.5" as="targetPoint" />
          </mxGeometry>
        </mxCell>
        <mxCell id="4zHIRzdhftlPSaTAwRZH-263" value="RUN" style="rhombus;whiteSpace=wrap;html=1;fontFamily=Verdana;" parent="1" vertex="1">
          <mxGeometry x="10" y="1960.5" width="95" height="80" as="geometry" />
        </mxCell>
        <mxCell id="4zHIRzdhftlPSaTAwRZH-265" value="SIM" style="text;html=1;strokeColor=none;fillColor=none;align=center;verticalAlign=middle;whiteSpace=wrap;rounded=0;fontFamily=Verdana;" parent="1" vertex="1">
          <mxGeometry x="55" y="2050.5" width="40" height="20" as="geometry" />
        </mxCell>
        <mxCell id="4zHIRzdhftlPSaTAwRZH-267" value="NÃO" style="text;html=1;strokeColor=none;fillColor=none;align=center;verticalAlign=middle;whiteSpace=wrap;rounded=0;fontFamily=Verdana;" parent="1" vertex="1">
          <mxGeometry x="125" y="1980.5" width="40" height="20" as="geometry" />
        </mxCell>
        <mxCell id="4zHIRzdhftlPSaTAwRZH-274" value="" style="edgeStyle=orthogonalEdgeStyle;rounded=0;orthogonalLoop=1;jettySize=auto;html=1;fontFamily=Verdana;" parent="1" source="4zHIRzdhftlPSaTAwRZH-268" target="4zHIRzdhftlPSaTAwRZH-271" edge="1">
          <mxGeometry relative="1" as="geometry" />
        </mxCell>
        <mxCell id="4zHIRzdhftlPSaTAwRZH-268" value="LED &amp;lt;= R[2]" style="rounded=1;whiteSpace=wrap;html=1;fontFamily=Verdana;" parent="1" vertex="1">
          <mxGeometry x="10" y="2081.5" width="95" height="40" as="geometry" />
        </mxCell>
        <mxCell id="4zHIRzdhftlPSaTAwRZH-269" style="edgeStyle=orthogonalEdgeStyle;rounded=0;orthogonalLoop=1;jettySize=auto;html=1;exitX=1;exitY=0.5;exitDx=0;exitDy=0;fontFamily=Verdana;" parent="1" source="4zHIRzdhftlPSaTAwRZH-271" edge="1">
          <mxGeometry relative="1" as="geometry">
            <mxPoint x="58" y="2141.5" as="targetPoint" />
          </mxGeometry>
        </mxCell>
        <mxCell id="4zHIRzdhftlPSaTAwRZH-270" style="edgeStyle=orthogonalEdgeStyle;rounded=0;orthogonalLoop=1;jettySize=auto;html=1;exitX=0.5;exitY=1;exitDx=0;exitDy=0;entryX=0.5;entryY=0;entryDx=0;entryDy=0;fontFamily=Verdana;" parent="1" source="4zHIRzdhftlPSaTAwRZH-271" edge="1">
          <mxGeometry relative="1" as="geometry">
            <mxPoint x="57.5" y="2281.5" as="targetPoint" />
          </mxGeometry>
        </mxCell>
        <mxCell id="4zHIRzdhftlPSaTAwRZH-271" value="RUN" style="rhombus;whiteSpace=wrap;html=1;fontFamily=Verdana;" parent="1" vertex="1">
          <mxGeometry x="10" y="2161.5" width="95" height="80" as="geometry" />
        </mxCell>
        <mxCell id="4zHIRzdhftlPSaTAwRZH-272" value="SIM" style="text;html=1;strokeColor=none;fillColor=none;align=center;verticalAlign=middle;whiteSpace=wrap;rounded=0;fontFamily=Verdana;" parent="1" vertex="1">
          <mxGeometry x="55" y="2251.5" width="40" height="20" as="geometry" />
        </mxCell>
        <mxCell id="4zHIRzdhftlPSaTAwRZH-273" value="NÃO" style="text;html=1;strokeColor=none;fillColor=none;align=center;verticalAlign=middle;whiteSpace=wrap;rounded=0;fontFamily=Verdana;" parent="1" vertex="1">
          <mxGeometry x="125" y="2181.5" width="40" height="20" as="geometry" />
        </mxCell>
        <mxCell id="4zHIRzdhftlPSaTAwRZH-275" value="17" style="shape=offPageConnector;whiteSpace=wrap;html=1;fontFamily=Verdana;" parent="1" vertex="1">
          <mxGeometry x="38.75" y="2281.5" width="37.5" height="40" as="geometry" />
        </mxCell>
        <mxCell id="4zHIRzdhftlPSaTAwRZH-276" value="" style="edgeStyle=orthogonalEdgeStyle;rounded=0;orthogonalLoop=1;jettySize=auto;html=1;fontFamily=Verdana;" parent="1" source="4zHIRzdhftlPSaTAwRZH-277" target="4zHIRzdhftlPSaTAwRZH-279" edge="1">
          <mxGeometry relative="1" as="geometry" />
        </mxCell>
        <mxCell id="4zHIRzdhftlPSaTAwRZH-277" value="17" style="shape=offPageConnector;whiteSpace=wrap;html=1;fontFamily=Verdana;" parent="1" vertex="1">
          <mxGeometry x="228.75" y="1800.5" width="37.5" height="40" as="geometry" />
        </mxCell>
        <mxCell id="4zHIRzdhftlPSaTAwRZH-278" style="edgeStyle=orthogonalEdgeStyle;rounded=0;orthogonalLoop=1;jettySize=auto;html=1;exitX=0.5;exitY=1;exitDx=0;exitDy=0;entryX=0.5;entryY=0;entryDx=0;entryDy=0;fontFamily=Verdana;" parent="1" source="4zHIRzdhftlPSaTAwRZH-279" target="4zHIRzdhftlPSaTAwRZH-282" edge="1">
          <mxGeometry relative="1" as="geometry" />
        </mxCell>
        <mxCell id="4zHIRzdhftlPSaTAwRZH-279" value="LED &amp;lt;= R[3]" style="rounded=1;whiteSpace=wrap;html=1;fontFamily=Verdana;" parent="1" vertex="1">
          <mxGeometry x="200" y="1880.5" width="95" height="40" as="geometry" />
        </mxCell>
        <mxCell id="4zHIRzdhftlPSaTAwRZH-280" style="edgeStyle=orthogonalEdgeStyle;rounded=0;orthogonalLoop=1;jettySize=auto;html=1;exitX=1;exitY=0.5;exitDx=0;exitDy=0;fontFamily=Verdana;" parent="1" source="4zHIRzdhftlPSaTAwRZH-282" edge="1">
          <mxGeometry relative="1" as="geometry">
            <mxPoint x="248" y="1940.5" as="targetPoint" />
          </mxGeometry>
        </mxCell>
        <mxCell id="4zHIRzdhftlPSaTAwRZH-281" style="edgeStyle=orthogonalEdgeStyle;rounded=0;orthogonalLoop=1;jettySize=auto;html=1;exitX=0.5;exitY=1;exitDx=0;exitDy=0;entryX=0.5;entryY=0;entryDx=0;entryDy=0;fontFamily=Verdana;" parent="1" source="4zHIRzdhftlPSaTAwRZH-282" edge="1">
          <mxGeometry relative="1" as="geometry">
            <mxPoint x="247.5" y="2080.5" as="targetPoint" />
          </mxGeometry>
        </mxCell>
        <mxCell id="4zHIRzdhftlPSaTAwRZH-282" value="RUN" style="rhombus;whiteSpace=wrap;html=1;fontFamily=Verdana;" parent="1" vertex="1">
          <mxGeometry x="200" y="1960.5" width="95" height="80" as="geometry" />
        </mxCell>
        <mxCell id="4zHIRzdhftlPSaTAwRZH-283" value="SIM" style="text;html=1;strokeColor=none;fillColor=none;align=center;verticalAlign=middle;whiteSpace=wrap;rounded=0;fontFamily=Verdana;" parent="1" vertex="1">
          <mxGeometry x="245" y="2050.5" width="40" height="20" as="geometry" />
        </mxCell>
        <mxCell id="4zHIRzdhftlPSaTAwRZH-284" value="NÃO" style="text;html=1;strokeColor=none;fillColor=none;align=center;verticalAlign=middle;whiteSpace=wrap;rounded=0;fontFamily=Verdana;" parent="1" vertex="1">
          <mxGeometry x="315" y="1980.5" width="40" height="20" as="geometry" />
        </mxCell>
        <mxCell id="4zHIRzdhftlPSaTAwRZH-285" value="" style="edgeStyle=orthogonalEdgeStyle;rounded=0;orthogonalLoop=1;jettySize=auto;html=1;fontFamily=Verdana;" parent="1" source="4zHIRzdhftlPSaTAwRZH-286" target="4zHIRzdhftlPSaTAwRZH-289" edge="1">
          <mxGeometry relative="1" as="geometry" />
        </mxCell>
        <mxCell id="4zHIRzdhftlPSaTAwRZH-286" value="LED &amp;lt;= R[4]" style="rounded=1;whiteSpace=wrap;html=1;fontFamily=Verdana;" parent="1" vertex="1">
          <mxGeometry x="200" y="2081.5" width="95" height="40" as="geometry" />
        </mxCell>
        <mxCell id="4zHIRzdhftlPSaTAwRZH-287" style="edgeStyle=orthogonalEdgeStyle;rounded=0;orthogonalLoop=1;jettySize=auto;html=1;exitX=1;exitY=0.5;exitDx=0;exitDy=0;fontFamily=Verdana;" parent="1" source="4zHIRzdhftlPSaTAwRZH-289" edge="1">
          <mxGeometry relative="1" as="geometry">
            <mxPoint x="248" y="2141.5" as="targetPoint" />
          </mxGeometry>
        </mxCell>
        <mxCell id="4zHIRzdhftlPSaTAwRZH-288" style="edgeStyle=orthogonalEdgeStyle;rounded=0;orthogonalLoop=1;jettySize=auto;html=1;exitX=0.5;exitY=1;exitDx=0;exitDy=0;entryX=0.5;entryY=0;entryDx=0;entryDy=0;fontFamily=Verdana;" parent="1" source="4zHIRzdhftlPSaTAwRZH-289" edge="1">
          <mxGeometry relative="1" as="geometry">
            <mxPoint x="247.5" y="2281.5" as="targetPoint" />
          </mxGeometry>
        </mxCell>
        <mxCell id="4zHIRzdhftlPSaTAwRZH-289" value="RUN" style="rhombus;whiteSpace=wrap;html=1;fontFamily=Verdana;" parent="1" vertex="1">
          <mxGeometry x="200" y="2161.5" width="95" height="80" as="geometry" />
        </mxCell>
        <mxCell id="4zHIRzdhftlPSaTAwRZH-290" value="SIM" style="text;html=1;strokeColor=none;fillColor=none;align=center;verticalAlign=middle;whiteSpace=wrap;rounded=0;fontFamily=Verdana;" parent="1" vertex="1">
          <mxGeometry x="245" y="2251.5" width="40" height="20" as="geometry" />
        </mxCell>
        <mxCell id="4zHIRzdhftlPSaTAwRZH-291" value="NÃO" style="text;html=1;strokeColor=none;fillColor=none;align=center;verticalAlign=middle;whiteSpace=wrap;rounded=0;fontFamily=Verdana;" parent="1" vertex="1">
          <mxGeometry x="315" y="2181.5" width="40" height="20" as="geometry" />
        </mxCell>
        <mxCell id="4zHIRzdhftlPSaTAwRZH-292" value="18" style="shape=offPageConnector;whiteSpace=wrap;html=1;fontFamily=Verdana;" parent="1" vertex="1">
          <mxGeometry x="228.75" y="2281.5" width="37.5" height="40" as="geometry" />
        </mxCell>
        <mxCell id="4zHIRzdhftlPSaTAwRZH-327" value="" style="edgeStyle=orthogonalEdgeStyle;rounded=0;orthogonalLoop=1;jettySize=auto;html=1;fontFamily=Verdana;" parent="1" source="4zHIRzdhftlPSaTAwRZH-328" target="4zHIRzdhftlPSaTAwRZH-330" edge="1">
          <mxGeometry relative="1" as="geometry" />
        </mxCell>
        <mxCell id="4zHIRzdhftlPSaTAwRZH-328" value="18" style="shape=offPageConnector;whiteSpace=wrap;html=1;fontFamily=Verdana;" parent="1" vertex="1">
          <mxGeometry x="408.75" y="1800" width="37.5" height="40" as="geometry" />
        </mxCell>
        <mxCell id="4zHIRzdhftlPSaTAwRZH-329" style="edgeStyle=orthogonalEdgeStyle;rounded=0;orthogonalLoop=1;jettySize=auto;html=1;exitX=0.5;exitY=1;exitDx=0;exitDy=0;entryX=0.5;entryY=0;entryDx=0;entryDy=0;fontFamily=Verdana;" parent="1" source="4zHIRzdhftlPSaTAwRZH-330" target="4zHIRzdhftlPSaTAwRZH-333" edge="1">
          <mxGeometry relative="1" as="geometry" />
        </mxCell>
        <mxCell id="4zHIRzdhftlPSaTAwRZH-330" value="LED &amp;lt;= R[5]" style="rounded=1;whiteSpace=wrap;html=1;fontFamily=Verdana;" parent="1" vertex="1">
          <mxGeometry x="380" y="1880" width="95" height="40" as="geometry" />
        </mxCell>
        <mxCell id="4zHIRzdhftlPSaTAwRZH-331" style="edgeStyle=orthogonalEdgeStyle;rounded=0;orthogonalLoop=1;jettySize=auto;html=1;exitX=1;exitY=0.5;exitDx=0;exitDy=0;fontFamily=Verdana;" parent="1" source="4zHIRzdhftlPSaTAwRZH-333" edge="1">
          <mxGeometry relative="1" as="geometry">
            <mxPoint x="428" y="1940" as="targetPoint" />
          </mxGeometry>
        </mxCell>
        <mxCell id="4zHIRzdhftlPSaTAwRZH-332" style="edgeStyle=orthogonalEdgeStyle;rounded=0;orthogonalLoop=1;jettySize=auto;html=1;exitX=0.5;exitY=1;exitDx=0;exitDy=0;entryX=0.5;entryY=0;entryDx=0;entryDy=0;fontFamily=Verdana;" parent="1" source="4zHIRzdhftlPSaTAwRZH-333" edge="1">
          <mxGeometry relative="1" as="geometry">
            <mxPoint x="427.5" y="2080" as="targetPoint" />
          </mxGeometry>
        </mxCell>
        <mxCell id="4zHIRzdhftlPSaTAwRZH-333" value="RUN" style="rhombus;whiteSpace=wrap;html=1;fontFamily=Verdana;" parent="1" vertex="1">
          <mxGeometry x="380" y="1960" width="95" height="80" as="geometry" />
        </mxCell>
        <mxCell id="4zHIRzdhftlPSaTAwRZH-334" value="SIM" style="text;html=1;strokeColor=none;fillColor=none;align=center;verticalAlign=middle;whiteSpace=wrap;rounded=0;fontFamily=Verdana;" parent="1" vertex="1">
          <mxGeometry x="425" y="2050" width="40" height="20" as="geometry" />
        </mxCell>
        <mxCell id="4zHIRzdhftlPSaTAwRZH-335" value="NÃO" style="text;html=1;strokeColor=none;fillColor=none;align=center;verticalAlign=middle;whiteSpace=wrap;rounded=0;fontFamily=Verdana;" parent="1" vertex="1">
          <mxGeometry x="495" y="1980" width="40" height="20" as="geometry" />
        </mxCell>
        <mxCell id="4zHIRzdhftlPSaTAwRZH-336" value="" style="edgeStyle=orthogonalEdgeStyle;rounded=0;orthogonalLoop=1;jettySize=auto;html=1;fontFamily=Verdana;" parent="1" source="4zHIRzdhftlPSaTAwRZH-337" target="4zHIRzdhftlPSaTAwRZH-340" edge="1">
          <mxGeometry relative="1" as="geometry" />
        </mxCell>
        <mxCell id="4zHIRzdhftlPSaTAwRZH-337" value="LED &amp;lt;= R[6]" style="rounded=1;whiteSpace=wrap;html=1;fontFamily=Verdana;" parent="1" vertex="1">
          <mxGeometry x="380" y="2081.5" width="95" height="40" as="geometry" />
        </mxCell>
        <mxCell id="4zHIRzdhftlPSaTAwRZH-338" style="edgeStyle=orthogonalEdgeStyle;rounded=0;orthogonalLoop=1;jettySize=auto;html=1;exitX=1;exitY=0.5;exitDx=0;exitDy=0;fontFamily=Verdana;" parent="1" source="4zHIRzdhftlPSaTAwRZH-340" edge="1">
          <mxGeometry relative="1" as="geometry">
            <mxPoint x="428" y="2141" as="targetPoint" />
          </mxGeometry>
        </mxCell>
        <mxCell id="4zHIRzdhftlPSaTAwRZH-339" style="edgeStyle=orthogonalEdgeStyle;rounded=0;orthogonalLoop=1;jettySize=auto;html=1;exitX=0.5;exitY=1;exitDx=0;exitDy=0;entryX=0.5;entryY=0;entryDx=0;entryDy=0;fontFamily=Verdana;" parent="1" source="4zHIRzdhftlPSaTAwRZH-340" edge="1">
          <mxGeometry relative="1" as="geometry">
            <mxPoint x="427.5" y="2281" as="targetPoint" />
          </mxGeometry>
        </mxCell>
        <mxCell id="4zHIRzdhftlPSaTAwRZH-340" value="RUN" style="rhombus;whiteSpace=wrap;html=1;fontFamily=Verdana;" parent="1" vertex="1">
          <mxGeometry x="380" y="2161" width="95" height="80" as="geometry" />
        </mxCell>
        <mxCell id="4zHIRzdhftlPSaTAwRZH-341" value="SIM" style="text;html=1;strokeColor=none;fillColor=none;align=center;verticalAlign=middle;whiteSpace=wrap;rounded=0;fontFamily=Verdana;" parent="1" vertex="1">
          <mxGeometry x="425" y="2251" width="40" height="20" as="geometry" />
        </mxCell>
        <mxCell id="4zHIRzdhftlPSaTAwRZH-342" value="NÃO" style="text;html=1;strokeColor=none;fillColor=none;align=center;verticalAlign=middle;whiteSpace=wrap;rounded=0;fontFamily=Verdana;" parent="1" vertex="1">
          <mxGeometry x="495" y="2181" width="40" height="20" as="geometry" />
        </mxCell>
        <mxCell id="4zHIRzdhftlPSaTAwRZH-343" value="19" style="shape=offPageConnector;whiteSpace=wrap;html=1;fontFamily=Verdana;" parent="1" vertex="1">
          <mxGeometry x="408.75" y="2281" width="37.5" height="40" as="geometry" />
        </mxCell>
        <mxCell id="4zHIRzdhftlPSaTAwRZH-346" value="" style="edgeStyle=orthogonalEdgeStyle;rounded=0;orthogonalLoop=1;jettySize=auto;html=1;fontFamily=Verdana;" parent="1" source="4zHIRzdhftlPSaTAwRZH-347" target="4zHIRzdhftlPSaTAwRZH-349" edge="1">
          <mxGeometry relative="1" as="geometry" />
        </mxCell>
        <mxCell id="4zHIRzdhftlPSaTAwRZH-347" value="19" style="shape=offPageConnector;whiteSpace=wrap;html=1;fontFamily=Verdana;" parent="1" vertex="1">
          <mxGeometry x="583.75" y="1800.5" width="37.5" height="40" as="geometry" />
        </mxCell>
        <mxCell id="4zHIRzdhftlPSaTAwRZH-348" style="edgeStyle=orthogonalEdgeStyle;rounded=0;orthogonalLoop=1;jettySize=auto;html=1;exitX=0.5;exitY=1;exitDx=0;exitDy=0;entryX=0.5;entryY=0;entryDx=0;entryDy=0;fontFamily=Verdana;" parent="1" source="4zHIRzdhftlPSaTAwRZH-349" target="4zHIRzdhftlPSaTAwRZH-352" edge="1">
          <mxGeometry relative="1" as="geometry" />
        </mxCell>
        <mxCell id="4zHIRzdhftlPSaTAwRZH-349" value="LED &amp;lt;= R[7]" style="rounded=1;whiteSpace=wrap;html=1;fontFamily=Verdana;" parent="1" vertex="1">
          <mxGeometry x="555" y="1880.5" width="95" height="40" as="geometry" />
        </mxCell>
        <mxCell id="4zHIRzdhftlPSaTAwRZH-350" style="edgeStyle=orthogonalEdgeStyle;rounded=0;orthogonalLoop=1;jettySize=auto;html=1;exitX=1;exitY=0.5;exitDx=0;exitDy=0;fontFamily=Verdana;" parent="1" source="4zHIRzdhftlPSaTAwRZH-352" edge="1">
          <mxGeometry relative="1" as="geometry">
            <mxPoint x="603" y="1940.5" as="targetPoint" />
          </mxGeometry>
        </mxCell>
        <mxCell id="4zHIRzdhftlPSaTAwRZH-351" style="edgeStyle=orthogonalEdgeStyle;rounded=0;orthogonalLoop=1;jettySize=auto;html=1;exitX=0.5;exitY=1;exitDx=0;exitDy=0;entryX=0.5;entryY=0;entryDx=0;entryDy=0;fontFamily=Verdana;" parent="1" source="4zHIRzdhftlPSaTAwRZH-352" edge="1">
          <mxGeometry relative="1" as="geometry">
            <mxPoint x="602.5" y="2080.5" as="targetPoint" />
          </mxGeometry>
        </mxCell>
        <mxCell id="4zHIRzdhftlPSaTAwRZH-352" value="RUN" style="rhombus;whiteSpace=wrap;html=1;fontFamily=Verdana;" parent="1" vertex="1">
          <mxGeometry x="555" y="1960.5" width="95" height="80" as="geometry" />
        </mxCell>
        <mxCell id="4zHIRzdhftlPSaTAwRZH-353" value="SIM" style="text;html=1;strokeColor=none;fillColor=none;align=center;verticalAlign=middle;whiteSpace=wrap;rounded=0;fontFamily=Verdana;" parent="1" vertex="1">
          <mxGeometry x="600" y="2050.5" width="40" height="20" as="geometry" />
        </mxCell>
        <mxCell id="4zHIRzdhftlPSaTAwRZH-354" value="NÃO" style="text;html=1;strokeColor=none;fillColor=none;align=center;verticalAlign=middle;whiteSpace=wrap;rounded=0;fontFamily=Verdana;" parent="1" vertex="1">
          <mxGeometry x="670" y="1980.5" width="40" height="20" as="geometry" />
        </mxCell>
        <mxCell id="4zHIRzdhftlPSaTAwRZH-355" value="" style="edgeStyle=orthogonalEdgeStyle;rounded=0;orthogonalLoop=1;jettySize=auto;html=1;fontFamily=Verdana;" parent="1" source="4zHIRzdhftlPSaTAwRZH-356" target="4zHIRzdhftlPSaTAwRZH-359" edge="1">
          <mxGeometry relative="1" as="geometry" />
        </mxCell>
        <mxCell id="4zHIRzdhftlPSaTAwRZH-356" value="LED &amp;lt;= R[8]" style="rounded=1;whiteSpace=wrap;html=1;fontFamily=Verdana;" parent="1" vertex="1">
          <mxGeometry x="555" y="2082" width="95" height="40" as="geometry" />
        </mxCell>
        <mxCell id="4zHIRzdhftlPSaTAwRZH-357" style="edgeStyle=orthogonalEdgeStyle;rounded=0;orthogonalLoop=1;jettySize=auto;html=1;exitX=1;exitY=0.5;exitDx=0;exitDy=0;fontFamily=Verdana;" parent="1" source="4zHIRzdhftlPSaTAwRZH-359" edge="1">
          <mxGeometry relative="1" as="geometry">
            <mxPoint x="603" y="2141.5" as="targetPoint" />
          </mxGeometry>
        </mxCell>
        <mxCell id="4zHIRzdhftlPSaTAwRZH-358" style="edgeStyle=orthogonalEdgeStyle;rounded=0;orthogonalLoop=1;jettySize=auto;html=1;exitX=0.5;exitY=1;exitDx=0;exitDy=0;entryX=0.5;entryY=0;entryDx=0;entryDy=0;fontFamily=Verdana;" parent="1" source="4zHIRzdhftlPSaTAwRZH-359" edge="1">
          <mxGeometry relative="1" as="geometry">
            <mxPoint x="602.5" y="2281.5" as="targetPoint" />
          </mxGeometry>
        </mxCell>
        <mxCell id="4zHIRzdhftlPSaTAwRZH-359" value="RUN" style="rhombus;whiteSpace=wrap;html=1;fontFamily=Verdana;" parent="1" vertex="1">
          <mxGeometry x="555" y="2161.5" width="95" height="80" as="geometry" />
        </mxCell>
        <mxCell id="4zHIRzdhftlPSaTAwRZH-360" value="SIM" style="text;html=1;strokeColor=none;fillColor=none;align=center;verticalAlign=middle;whiteSpace=wrap;rounded=0;fontFamily=Verdana;" parent="1" vertex="1">
          <mxGeometry x="600" y="2251.5" width="40" height="20" as="geometry" />
        </mxCell>
        <mxCell id="4zHIRzdhftlPSaTAwRZH-361" value="NÃO" style="text;html=1;strokeColor=none;fillColor=none;align=center;verticalAlign=middle;whiteSpace=wrap;rounded=0;fontFamily=Verdana;" parent="1" vertex="1">
          <mxGeometry x="670" y="2181.5" width="40" height="20" as="geometry" />
        </mxCell>
        <mxCell id="4zHIRzdhftlPSaTAwRZH-362" value="20" style="shape=offPageConnector;whiteSpace=wrap;html=1;fontFamily=Verdana;" parent="1" vertex="1">
          <mxGeometry x="583.75" y="2281.5" width="37.5" height="40" as="geometry" />
        </mxCell>
        <mxCell id="4zHIRzdhftlPSaTAwRZH-370" value="&lt;font style=&quot;font-size: 30px&quot;&gt;Ordenação Números&lt;/font&gt;" style="text;html=1;strokeColor=none;fillColor=none;align=center;verticalAlign=middle;whiteSpace=wrap;rounded=0;fontFamily=Verdana;" parent="1" vertex="1">
          <mxGeometry x="1324" y="1554" width="330" height="200" as="geometry" />
        </mxCell>
        <mxCell id="4zHIRzdhftlPSaTAwRZH-374" value="&lt;font style=&quot;font-size: 30px&quot;&gt;Exibição Pós Ordenação&lt;/font&gt;" style="text;html=1;strokeColor=none;fillColor=none;align=center;verticalAlign=middle;whiteSpace=wrap;rounded=0;fontFamily=Verdana;" parent="1" vertex="1">
          <mxGeometry x="647" y="2121" width="330" height="200" as="geometry" />
        </mxCell>
        <mxCell id="4zHIRzdhftlPSaTAwRZH-375" value="&lt;font style=&quot;font-size: 20px&quot;&gt;Declaração da matrícula&lt;/font&gt;" style="text;html=1;strokeColor=none;fillColor=none;align=center;verticalAlign=middle;whiteSpace=wrap;rounded=0;fontFamily=Verdana;" parent="1" vertex="1">
          <mxGeometry x="1350" y="410" width="150" height="70" as="geometry" />
        </mxCell>
        <mxCell id="txzuhLuvdfgNLgQ4ZMH0-5" style="edgeStyle=orthogonalEdgeStyle;rounded=0;orthogonalLoop=1;jettySize=auto;html=1;exitX=0.5;exitY=1;exitDx=0;exitDy=0;entryX=0.5;entryY=0;entryDx=0;entryDy=0;" parent="1" source="txzuhLuvdfgNLgQ4ZMH0-1" target="sRFEvAHlBmAmTLRkeG5V-11" edge="1">
          <mxGeometry relative="1" as="geometry" />
        </mxCell>
        <mxCell id="txzuhLuvdfgNLgQ4ZMH0-1" value="R[1] =&amp;gt; D[10]" style="rounded=1;whiteSpace=wrap;html=1;fontFamily=Verdana;" parent="1" vertex="1">
          <mxGeometry x="85" y="280" width="95" height="40" as="geometry" />
        </mxCell>
        <mxCell id="txzuhLuvdfgNLgQ4ZMH0-10" value="" style="edgeStyle=orthogonalEdgeStyle;rounded=0;orthogonalLoop=1;jettySize=auto;html=1;" parent="1" source="txzuhLuvdfgNLgQ4ZMH0-7" target="sRFEvAHlBmAmTLRkeG5V-24" edge="1">
          <mxGeometry relative="1" as="geometry" />
        </mxCell>
        <mxCell id="txzuhLuvdfgNLgQ4ZMH0-7" value="R[2] =&amp;gt; D[11]" style="rounded=1;whiteSpace=wrap;html=1;fontFamily=Verdana;" parent="1" vertex="1">
          <mxGeometry x="280" y="160" width="95" height="40" as="geometry" />
        </mxCell>
        <mxCell id="txzuhLuvdfgNLgQ4ZMH0-11" value="" style="edgeStyle=orthogonalEdgeStyle;rounded=0;orthogonalLoop=1;jettySize=auto;html=1;" parent="1" source="txzuhLuvdfgNLgQ4ZMH0-12" target="txzuhLuvdfgNLgQ4ZMH0-24" edge="1">
          <mxGeometry relative="1" as="geometry" />
        </mxCell>
        <mxCell id="txzuhLuvdfgNLgQ4ZMH0-12" value="R[3] &amp;lt;= ch" style="rounded=1;whiteSpace=wrap;html=1;fontFamily=Verdana;" parent="1" vertex="1">
          <mxGeometry x="477.5" y="80" width="95" height="40" as="geometry" />
        </mxCell>
        <mxCell id="txzuhLuvdfgNLgQ4ZMH0-13" style="edgeStyle=orthogonalEdgeStyle;rounded=0;orthogonalLoop=1;jettySize=auto;html=1;exitX=0.5;exitY=1;exitDx=0;exitDy=0;entryX=0.5;entryY=0;entryDx=0;entryDy=0;fontFamily=Verdana;" parent="1" source="txzuhLuvdfgNLgQ4ZMH0-14" target="txzuhLuvdfgNLgQ4ZMH0-17" edge="1">
          <mxGeometry relative="1" as="geometry" />
        </mxCell>
        <mxCell id="txzuhLuvdfgNLgQ4ZMH0-14" value="LED &amp;lt;= R[3]" style="rounded=1;whiteSpace=wrap;html=1;fontFamily=Verdana;" parent="1" vertex="1">
          <mxGeometry x="477.5" y="250" width="95" height="40" as="geometry" />
        </mxCell>
        <mxCell id="txzuhLuvdfgNLgQ4ZMH0-15" style="edgeStyle=orthogonalEdgeStyle;rounded=0;orthogonalLoop=1;jettySize=auto;html=1;exitX=1;exitY=0.5;exitDx=0;exitDy=0;fontFamily=Verdana;" parent="1" source="txzuhLuvdfgNLgQ4ZMH0-17" edge="1">
          <mxGeometry relative="1" as="geometry">
            <mxPoint x="525.5" y="309.9999999999999" as="targetPoint" />
          </mxGeometry>
        </mxCell>
        <mxCell id="txzuhLuvdfgNLgQ4ZMH0-16" style="edgeStyle=orthogonalEdgeStyle;rounded=0;orthogonalLoop=1;jettySize=auto;html=1;exitX=0.5;exitY=1;exitDx=0;exitDy=0;entryX=0.5;entryY=0;entryDx=0;entryDy=0;fontFamily=Verdana;" parent="1" source="txzuhLuvdfgNLgQ4ZMH0-17" target="txzuhLuvdfgNLgQ4ZMH0-18" edge="1">
          <mxGeometry relative="1" as="geometry" />
        </mxCell>
        <mxCell id="txzuhLuvdfgNLgQ4ZMH0-17" value="RUN" style="rhombus;whiteSpace=wrap;html=1;fontFamily=Verdana;" parent="1" vertex="1">
          <mxGeometry x="477.5" y="330" width="95" height="80" as="geometry" />
        </mxCell>
        <mxCell id="txzuhLuvdfgNLgQ4ZMH0-18" value="3" style="shape=offPageConnector;whiteSpace=wrap;html=1;fontFamily=Verdana;" parent="1" vertex="1">
          <mxGeometry x="506.25" y="450" width="37.5" height="40" as="geometry" />
        </mxCell>
        <mxCell id="txzuhLuvdfgNLgQ4ZMH0-19" value="SIM" style="text;html=1;strokeColor=none;fillColor=none;align=center;verticalAlign=middle;whiteSpace=wrap;rounded=0;fontFamily=Verdana;" parent="1" vertex="1">
          <mxGeometry x="522.5" y="420" width="40" height="20" as="geometry" />
        </mxCell>
        <mxCell id="txzuhLuvdfgNLgQ4ZMH0-20" value="NÃO" style="text;html=1;strokeColor=none;fillColor=none;align=center;verticalAlign=middle;whiteSpace=wrap;rounded=0;fontFamily=Verdana;" parent="1" vertex="1">
          <mxGeometry x="557.5" y="350" width="40" height="20" as="geometry" />
        </mxCell>
        <mxCell id="txzuhLuvdfgNLgQ4ZMH0-21" style="edgeStyle=orthogonalEdgeStyle;rounded=0;orthogonalLoop=1;jettySize=auto;html=1;exitX=0.5;exitY=1;exitDx=0;exitDy=0;entryX=0.5;entryY=0;entryDx=0;entryDy=0;fontFamily=Verdana;" parent="1" source="txzuhLuvdfgNLgQ4ZMH0-22" target="txzuhLuvdfgNLgQ4ZMH0-12" edge="1">
          <mxGeometry relative="1" as="geometry" />
        </mxCell>
        <mxCell id="txzuhLuvdfgNLgQ4ZMH0-22" value="2" style="shape=offPageConnector;whiteSpace=wrap;html=1;fontFamily=Verdana;" parent="1" vertex="1">
          <mxGeometry x="506.25" y="10" width="37.5" height="40" as="geometry" />
        </mxCell>
        <mxCell id="txzuhLuvdfgNLgQ4ZMH0-23" value="" style="edgeStyle=orthogonalEdgeStyle;rounded=0;orthogonalLoop=1;jettySize=auto;html=1;" parent="1" source="txzuhLuvdfgNLgQ4ZMH0-24" target="txzuhLuvdfgNLgQ4ZMH0-14" edge="1">
          <mxGeometry relative="1" as="geometry" />
        </mxCell>
        <mxCell id="txzuhLuvdfgNLgQ4ZMH0-24" value="R[3] =&amp;gt; D[12]" style="rounded=1;whiteSpace=wrap;html=1;fontFamily=Verdana;" parent="1" vertex="1">
          <mxGeometry x="477.5" y="160" width="95" height="40" as="geometry" />
        </mxCell>
        <mxCell id="txzuhLuvdfgNLgQ4ZMH0-25" value="" style="edgeStyle=orthogonalEdgeStyle;rounded=0;orthogonalLoop=1;jettySize=auto;html=1;" parent="1" source="txzuhLuvdfgNLgQ4ZMH0-26" target="txzuhLuvdfgNLgQ4ZMH0-38" edge="1">
          <mxGeometry relative="1" as="geometry" />
        </mxCell>
        <mxCell id="txzuhLuvdfgNLgQ4ZMH0-26" value="R[4] &amp;lt;= ch" style="rounded=1;whiteSpace=wrap;html=1;fontFamily=Verdana;" parent="1" vertex="1">
          <mxGeometry x="642.5" y="80" width="95" height="40" as="geometry" />
        </mxCell>
        <mxCell id="txzuhLuvdfgNLgQ4ZMH0-27" style="edgeStyle=orthogonalEdgeStyle;rounded=0;orthogonalLoop=1;jettySize=auto;html=1;exitX=0.5;exitY=1;exitDx=0;exitDy=0;entryX=0.5;entryY=0;entryDx=0;entryDy=0;fontFamily=Verdana;" parent="1" source="txzuhLuvdfgNLgQ4ZMH0-28" target="txzuhLuvdfgNLgQ4ZMH0-31" edge="1">
          <mxGeometry relative="1" as="geometry" />
        </mxCell>
        <mxCell id="txzuhLuvdfgNLgQ4ZMH0-28" value="LED &amp;lt;= R[4]" style="rounded=1;whiteSpace=wrap;html=1;fontFamily=Verdana;" parent="1" vertex="1">
          <mxGeometry x="642.5" y="250" width="95" height="40" as="geometry" />
        </mxCell>
        <mxCell id="txzuhLuvdfgNLgQ4ZMH0-29" style="edgeStyle=orthogonalEdgeStyle;rounded=0;orthogonalLoop=1;jettySize=auto;html=1;exitX=1;exitY=0.5;exitDx=0;exitDy=0;fontFamily=Verdana;" parent="1" source="txzuhLuvdfgNLgQ4ZMH0-31" edge="1">
          <mxGeometry relative="1" as="geometry">
            <mxPoint x="690.5" y="309.9999999999999" as="targetPoint" />
          </mxGeometry>
        </mxCell>
        <mxCell id="txzuhLuvdfgNLgQ4ZMH0-30" style="edgeStyle=orthogonalEdgeStyle;rounded=0;orthogonalLoop=1;jettySize=auto;html=1;exitX=0.5;exitY=1;exitDx=0;exitDy=0;entryX=0.5;entryY=0;entryDx=0;entryDy=0;fontFamily=Verdana;" parent="1" source="txzuhLuvdfgNLgQ4ZMH0-31" target="txzuhLuvdfgNLgQ4ZMH0-32" edge="1">
          <mxGeometry relative="1" as="geometry" />
        </mxCell>
        <mxCell id="txzuhLuvdfgNLgQ4ZMH0-31" value="RUN" style="rhombus;whiteSpace=wrap;html=1;fontFamily=Verdana;" parent="1" vertex="1">
          <mxGeometry x="642.5" y="330" width="95" height="80" as="geometry" />
        </mxCell>
        <mxCell id="txzuhLuvdfgNLgQ4ZMH0-32" value="4" style="shape=offPageConnector;whiteSpace=wrap;html=1;fontFamily=Verdana;" parent="1" vertex="1">
          <mxGeometry x="671.25" y="450" width="37.5" height="40" as="geometry" />
        </mxCell>
        <mxCell id="txzuhLuvdfgNLgQ4ZMH0-33" value="SIM" style="text;html=1;strokeColor=none;fillColor=none;align=center;verticalAlign=middle;whiteSpace=wrap;rounded=0;fontFamily=Verdana;" parent="1" vertex="1">
          <mxGeometry x="687.5" y="420" width="40" height="20" as="geometry" />
        </mxCell>
        <mxCell id="txzuhLuvdfgNLgQ4ZMH0-34" value="NÃO" style="text;html=1;strokeColor=none;fillColor=none;align=center;verticalAlign=middle;whiteSpace=wrap;rounded=0;fontFamily=Verdana;" parent="1" vertex="1">
          <mxGeometry x="722.5" y="350" width="40" height="20" as="geometry" />
        </mxCell>
        <mxCell id="txzuhLuvdfgNLgQ4ZMH0-35" style="edgeStyle=orthogonalEdgeStyle;rounded=0;orthogonalLoop=1;jettySize=auto;html=1;exitX=0.5;exitY=1;exitDx=0;exitDy=0;entryX=0.5;entryY=0;entryDx=0;entryDy=0;fontFamily=Verdana;" parent="1" source="txzuhLuvdfgNLgQ4ZMH0-36" target="txzuhLuvdfgNLgQ4ZMH0-26" edge="1">
          <mxGeometry relative="1" as="geometry" />
        </mxCell>
        <mxCell id="txzuhLuvdfgNLgQ4ZMH0-36" value="3" style="shape=offPageConnector;whiteSpace=wrap;html=1;fontFamily=Verdana;" parent="1" vertex="1">
          <mxGeometry x="671.25" y="10" width="37.5" height="40" as="geometry" />
        </mxCell>
        <mxCell id="txzuhLuvdfgNLgQ4ZMH0-37" value="" style="edgeStyle=orthogonalEdgeStyle;rounded=0;orthogonalLoop=1;jettySize=auto;html=1;" parent="1" source="txzuhLuvdfgNLgQ4ZMH0-38" target="txzuhLuvdfgNLgQ4ZMH0-28" edge="1">
          <mxGeometry relative="1" as="geometry" />
        </mxCell>
        <mxCell id="txzuhLuvdfgNLgQ4ZMH0-38" value="R[4] =&amp;gt; D[13]" style="rounded=1;whiteSpace=wrap;html=1;fontFamily=Verdana;" parent="1" vertex="1">
          <mxGeometry x="642.5" y="160" width="95" height="40" as="geometry" />
        </mxCell>
        <mxCell id="txzuhLuvdfgNLgQ4ZMH0-39" value="" style="edgeStyle=orthogonalEdgeStyle;rounded=0;orthogonalLoop=1;jettySize=auto;html=1;" parent="1" source="txzuhLuvdfgNLgQ4ZMH0-40" target="txzuhLuvdfgNLgQ4ZMH0-52" edge="1">
          <mxGeometry relative="1" as="geometry" />
        </mxCell>
        <mxCell id="txzuhLuvdfgNLgQ4ZMH0-40" value="R[5] &amp;lt;= ch" style="rounded=1;whiteSpace=wrap;html=1;fontFamily=Verdana;" parent="1" vertex="1">
          <mxGeometry x="812.5" y="80" width="95" height="40" as="geometry" />
        </mxCell>
        <mxCell id="txzuhLuvdfgNLgQ4ZMH0-41" style="edgeStyle=orthogonalEdgeStyle;rounded=0;orthogonalLoop=1;jettySize=auto;html=1;exitX=0.5;exitY=1;exitDx=0;exitDy=0;entryX=0.5;entryY=0;entryDx=0;entryDy=0;fontFamily=Verdana;" parent="1" source="txzuhLuvdfgNLgQ4ZMH0-42" target="txzuhLuvdfgNLgQ4ZMH0-45" edge="1">
          <mxGeometry relative="1" as="geometry" />
        </mxCell>
        <mxCell id="txzuhLuvdfgNLgQ4ZMH0-42" value="LED &amp;lt;= R[5]" style="rounded=1;whiteSpace=wrap;html=1;fontFamily=Verdana;" parent="1" vertex="1">
          <mxGeometry x="812.5" y="250" width="95" height="40" as="geometry" />
        </mxCell>
        <mxCell id="txzuhLuvdfgNLgQ4ZMH0-43" style="edgeStyle=orthogonalEdgeStyle;rounded=0;orthogonalLoop=1;jettySize=auto;html=1;exitX=1;exitY=0.5;exitDx=0;exitDy=0;fontFamily=Verdana;" parent="1" source="txzuhLuvdfgNLgQ4ZMH0-45" edge="1">
          <mxGeometry relative="1" as="geometry">
            <mxPoint x="860.5" y="309.9999999999999" as="targetPoint" />
          </mxGeometry>
        </mxCell>
        <mxCell id="txzuhLuvdfgNLgQ4ZMH0-44" style="edgeStyle=orthogonalEdgeStyle;rounded=0;orthogonalLoop=1;jettySize=auto;html=1;exitX=0.5;exitY=1;exitDx=0;exitDy=0;entryX=0.5;entryY=0;entryDx=0;entryDy=0;fontFamily=Verdana;" parent="1" source="txzuhLuvdfgNLgQ4ZMH0-45" target="txzuhLuvdfgNLgQ4ZMH0-46" edge="1">
          <mxGeometry relative="1" as="geometry" />
        </mxCell>
        <mxCell id="txzuhLuvdfgNLgQ4ZMH0-45" value="RUN" style="rhombus;whiteSpace=wrap;html=1;fontFamily=Verdana;" parent="1" vertex="1">
          <mxGeometry x="812.5" y="330" width="95" height="80" as="geometry" />
        </mxCell>
        <mxCell id="txzuhLuvdfgNLgQ4ZMH0-46" value="5" style="shape=offPageConnector;whiteSpace=wrap;html=1;fontFamily=Verdana;" parent="1" vertex="1">
          <mxGeometry x="841.25" y="450" width="37.5" height="40" as="geometry" />
        </mxCell>
        <mxCell id="txzuhLuvdfgNLgQ4ZMH0-47" value="SIM" style="text;html=1;strokeColor=none;fillColor=none;align=center;verticalAlign=middle;whiteSpace=wrap;rounded=0;fontFamily=Verdana;" parent="1" vertex="1">
          <mxGeometry x="857.5" y="420" width="40" height="20" as="geometry" />
        </mxCell>
        <mxCell id="txzuhLuvdfgNLgQ4ZMH0-48" value="NÃO" style="text;html=1;strokeColor=none;fillColor=none;align=center;verticalAlign=middle;whiteSpace=wrap;rounded=0;fontFamily=Verdana;" parent="1" vertex="1">
          <mxGeometry x="892.5" y="350" width="40" height="20" as="geometry" />
        </mxCell>
        <mxCell id="txzuhLuvdfgNLgQ4ZMH0-49" style="edgeStyle=orthogonalEdgeStyle;rounded=0;orthogonalLoop=1;jettySize=auto;html=1;exitX=0.5;exitY=1;exitDx=0;exitDy=0;entryX=0.5;entryY=0;entryDx=0;entryDy=0;fontFamily=Verdana;" parent="1" source="txzuhLuvdfgNLgQ4ZMH0-50" target="txzuhLuvdfgNLgQ4ZMH0-40" edge="1">
          <mxGeometry relative="1" as="geometry" />
        </mxCell>
        <mxCell id="txzuhLuvdfgNLgQ4ZMH0-50" value="4" style="shape=offPageConnector;whiteSpace=wrap;html=1;fontFamily=Verdana;" parent="1" vertex="1">
          <mxGeometry x="841.25" y="10" width="37.5" height="40" as="geometry" />
        </mxCell>
        <mxCell id="txzuhLuvdfgNLgQ4ZMH0-51" value="" style="edgeStyle=orthogonalEdgeStyle;rounded=0;orthogonalLoop=1;jettySize=auto;html=1;" parent="1" source="txzuhLuvdfgNLgQ4ZMH0-52" target="txzuhLuvdfgNLgQ4ZMH0-42" edge="1">
          <mxGeometry relative="1" as="geometry" />
        </mxCell>
        <mxCell id="txzuhLuvdfgNLgQ4ZMH0-52" value="R[5] =&amp;gt; D[14]" style="rounded=1;whiteSpace=wrap;html=1;fontFamily=Verdana;" parent="1" vertex="1">
          <mxGeometry x="812.5" y="160" width="95" height="40" as="geometry" />
        </mxCell>
        <mxCell id="txzuhLuvdfgNLgQ4ZMH0-53" value="" style="edgeStyle=orthogonalEdgeStyle;rounded=0;orthogonalLoop=1;jettySize=auto;html=1;" parent="1" source="txzuhLuvdfgNLgQ4ZMH0-54" target="txzuhLuvdfgNLgQ4ZMH0-66" edge="1">
          <mxGeometry relative="1" as="geometry" />
        </mxCell>
        <mxCell id="txzuhLuvdfgNLgQ4ZMH0-54" value="R[6] &amp;lt;= ch" style="rounded=1;whiteSpace=wrap;html=1;fontFamily=Verdana;" parent="1" vertex="1">
          <mxGeometry x="1008.75" y="80" width="95" height="40" as="geometry" />
        </mxCell>
        <mxCell id="txzuhLuvdfgNLgQ4ZMH0-55" style="edgeStyle=orthogonalEdgeStyle;rounded=0;orthogonalLoop=1;jettySize=auto;html=1;exitX=0.5;exitY=1;exitDx=0;exitDy=0;entryX=0.5;entryY=0;entryDx=0;entryDy=0;fontFamily=Verdana;" parent="1" source="txzuhLuvdfgNLgQ4ZMH0-56" target="txzuhLuvdfgNLgQ4ZMH0-59" edge="1">
          <mxGeometry relative="1" as="geometry" />
        </mxCell>
        <mxCell id="txzuhLuvdfgNLgQ4ZMH0-56" value="LED &amp;lt;= R[6]" style="rounded=1;whiteSpace=wrap;html=1;fontFamily=Verdana;" parent="1" vertex="1">
          <mxGeometry x="1008.75" y="250" width="95" height="40" as="geometry" />
        </mxCell>
        <mxCell id="txzuhLuvdfgNLgQ4ZMH0-57" style="edgeStyle=orthogonalEdgeStyle;rounded=0;orthogonalLoop=1;jettySize=auto;html=1;exitX=1;exitY=0.5;exitDx=0;exitDy=0;fontFamily=Verdana;" parent="1" source="txzuhLuvdfgNLgQ4ZMH0-59" edge="1">
          <mxGeometry relative="1" as="geometry">
            <mxPoint x="1056.75" y="309.9999999999999" as="targetPoint" />
          </mxGeometry>
        </mxCell>
        <mxCell id="txzuhLuvdfgNLgQ4ZMH0-58" style="edgeStyle=orthogonalEdgeStyle;rounded=0;orthogonalLoop=1;jettySize=auto;html=1;exitX=0.5;exitY=1;exitDx=0;exitDy=0;entryX=0.5;entryY=0;entryDx=0;entryDy=0;fontFamily=Verdana;" parent="1" source="txzuhLuvdfgNLgQ4ZMH0-59" target="txzuhLuvdfgNLgQ4ZMH0-60" edge="1">
          <mxGeometry relative="1" as="geometry" />
        </mxCell>
        <mxCell id="txzuhLuvdfgNLgQ4ZMH0-59" value="RUN" style="rhombus;whiteSpace=wrap;html=1;fontFamily=Verdana;" parent="1" vertex="1">
          <mxGeometry x="1008.75" y="330" width="95" height="80" as="geometry" />
        </mxCell>
        <mxCell id="txzuhLuvdfgNLgQ4ZMH0-60" value="6" style="shape=offPageConnector;whiteSpace=wrap;html=1;fontFamily=Verdana;" parent="1" vertex="1">
          <mxGeometry x="1037.5" y="450" width="37.5" height="40" as="geometry" />
        </mxCell>
        <mxCell id="txzuhLuvdfgNLgQ4ZMH0-61" value="SIM" style="text;html=1;strokeColor=none;fillColor=none;align=center;verticalAlign=middle;whiteSpace=wrap;rounded=0;fontFamily=Verdana;" parent="1" vertex="1">
          <mxGeometry x="1053.75" y="420" width="40" height="20" as="geometry" />
        </mxCell>
        <mxCell id="txzuhLuvdfgNLgQ4ZMH0-62" value="NÃO" style="text;html=1;strokeColor=none;fillColor=none;align=center;verticalAlign=middle;whiteSpace=wrap;rounded=0;fontFamily=Verdana;" parent="1" vertex="1">
          <mxGeometry x="1088.75" y="350" width="40" height="20" as="geometry" />
        </mxCell>
        <mxCell id="txzuhLuvdfgNLgQ4ZMH0-63" style="edgeStyle=orthogonalEdgeStyle;rounded=0;orthogonalLoop=1;jettySize=auto;html=1;exitX=0.5;exitY=1;exitDx=0;exitDy=0;entryX=0.5;entryY=0;entryDx=0;entryDy=0;fontFamily=Verdana;" parent="1" source="txzuhLuvdfgNLgQ4ZMH0-64" target="txzuhLuvdfgNLgQ4ZMH0-54" edge="1">
          <mxGeometry relative="1" as="geometry" />
        </mxCell>
        <mxCell id="txzuhLuvdfgNLgQ4ZMH0-64" value="5" style="shape=offPageConnector;whiteSpace=wrap;html=1;fontFamily=Verdana;" parent="1" vertex="1">
          <mxGeometry x="1037.5" y="10" width="37.5" height="40" as="geometry" />
        </mxCell>
        <mxCell id="txzuhLuvdfgNLgQ4ZMH0-65" value="" style="edgeStyle=orthogonalEdgeStyle;rounded=0;orthogonalLoop=1;jettySize=auto;html=1;" parent="1" source="txzuhLuvdfgNLgQ4ZMH0-66" target="txzuhLuvdfgNLgQ4ZMH0-56" edge="1">
          <mxGeometry relative="1" as="geometry" />
        </mxCell>
        <mxCell id="txzuhLuvdfgNLgQ4ZMH0-66" value="R[6] =&amp;gt; D[15]" style="rounded=1;whiteSpace=wrap;html=1;fontFamily=Verdana;" parent="1" vertex="1">
          <mxGeometry x="1008.75" y="160" width="95" height="40" as="geometry" />
        </mxCell>
        <mxCell id="txzuhLuvdfgNLgQ4ZMH0-67" value="" style="edgeStyle=orthogonalEdgeStyle;rounded=0;orthogonalLoop=1;jettySize=auto;html=1;" parent="1" source="txzuhLuvdfgNLgQ4ZMH0-68" target="txzuhLuvdfgNLgQ4ZMH0-80" edge="1">
          <mxGeometry relative="1" as="geometry" />
        </mxCell>
        <mxCell id="txzuhLuvdfgNLgQ4ZMH0-68" value="R[7] &amp;lt;= ch" style="rounded=1;whiteSpace=wrap;html=1;fontFamily=Verdana;" parent="1" vertex="1">
          <mxGeometry x="1181" y="80" width="95" height="40" as="geometry" />
        </mxCell>
        <mxCell id="txzuhLuvdfgNLgQ4ZMH0-69" style="edgeStyle=orthogonalEdgeStyle;rounded=0;orthogonalLoop=1;jettySize=auto;html=1;exitX=0.5;exitY=1;exitDx=0;exitDy=0;entryX=0.5;entryY=0;entryDx=0;entryDy=0;fontFamily=Verdana;" parent="1" source="txzuhLuvdfgNLgQ4ZMH0-70" target="txzuhLuvdfgNLgQ4ZMH0-73" edge="1">
          <mxGeometry relative="1" as="geometry" />
        </mxCell>
        <mxCell id="txzuhLuvdfgNLgQ4ZMH0-70" value="LED &amp;lt;= R[7]" style="rounded=1;whiteSpace=wrap;html=1;fontFamily=Verdana;" parent="1" vertex="1">
          <mxGeometry x="1181" y="250" width="95" height="40" as="geometry" />
        </mxCell>
        <mxCell id="txzuhLuvdfgNLgQ4ZMH0-71" style="edgeStyle=orthogonalEdgeStyle;rounded=0;orthogonalLoop=1;jettySize=auto;html=1;exitX=1;exitY=0.5;exitDx=0;exitDy=0;fontFamily=Verdana;" parent="1" source="txzuhLuvdfgNLgQ4ZMH0-73" edge="1">
          <mxGeometry relative="1" as="geometry">
            <mxPoint x="1229" y="309.9999999999999" as="targetPoint" />
          </mxGeometry>
        </mxCell>
        <mxCell id="txzuhLuvdfgNLgQ4ZMH0-72" style="edgeStyle=orthogonalEdgeStyle;rounded=0;orthogonalLoop=1;jettySize=auto;html=1;exitX=0.5;exitY=1;exitDx=0;exitDy=0;entryX=0.5;entryY=0;entryDx=0;entryDy=0;fontFamily=Verdana;" parent="1" source="txzuhLuvdfgNLgQ4ZMH0-73" target="txzuhLuvdfgNLgQ4ZMH0-74" edge="1">
          <mxGeometry relative="1" as="geometry" />
        </mxCell>
        <mxCell id="txzuhLuvdfgNLgQ4ZMH0-73" value="RUN" style="rhombus;whiteSpace=wrap;html=1;fontFamily=Verdana;" parent="1" vertex="1">
          <mxGeometry x="1181" y="330" width="95" height="80" as="geometry" />
        </mxCell>
        <mxCell id="txzuhLuvdfgNLgQ4ZMH0-74" value="7" style="shape=offPageConnector;whiteSpace=wrap;html=1;fontFamily=Verdana;" parent="1" vertex="1">
          <mxGeometry x="1209.75" y="450" width="37.5" height="40" as="geometry" />
        </mxCell>
        <mxCell id="txzuhLuvdfgNLgQ4ZMH0-75" value="SIM" style="text;html=1;strokeColor=none;fillColor=none;align=center;verticalAlign=middle;whiteSpace=wrap;rounded=0;fontFamily=Verdana;" parent="1" vertex="1">
          <mxGeometry x="1226" y="420" width="40" height="20" as="geometry" />
        </mxCell>
        <mxCell id="txzuhLuvdfgNLgQ4ZMH0-76" value="NÃO" style="text;html=1;strokeColor=none;fillColor=none;align=center;verticalAlign=middle;whiteSpace=wrap;rounded=0;fontFamily=Verdana;" parent="1" vertex="1">
          <mxGeometry x="1261" y="350" width="40" height="20" as="geometry" />
        </mxCell>
        <mxCell id="txzuhLuvdfgNLgQ4ZMH0-77" style="edgeStyle=orthogonalEdgeStyle;rounded=0;orthogonalLoop=1;jettySize=auto;html=1;exitX=0.5;exitY=1;exitDx=0;exitDy=0;entryX=0.5;entryY=0;entryDx=0;entryDy=0;fontFamily=Verdana;" parent="1" source="txzuhLuvdfgNLgQ4ZMH0-78" target="txzuhLuvdfgNLgQ4ZMH0-68" edge="1">
          <mxGeometry relative="1" as="geometry" />
        </mxCell>
        <mxCell id="txzuhLuvdfgNLgQ4ZMH0-78" value="6" style="shape=offPageConnector;whiteSpace=wrap;html=1;fontFamily=Verdana;" parent="1" vertex="1">
          <mxGeometry x="1209.75" y="10" width="37.5" height="40" as="geometry" />
        </mxCell>
        <mxCell id="txzuhLuvdfgNLgQ4ZMH0-79" value="" style="edgeStyle=orthogonalEdgeStyle;rounded=0;orthogonalLoop=1;jettySize=auto;html=1;" parent="1" source="txzuhLuvdfgNLgQ4ZMH0-80" target="txzuhLuvdfgNLgQ4ZMH0-70" edge="1">
          <mxGeometry relative="1" as="geometry" />
        </mxCell>
        <mxCell id="txzuhLuvdfgNLgQ4ZMH0-80" value="R[7] =&amp;gt; D[16]" style="rounded=1;whiteSpace=wrap;html=1;fontFamily=Verdana;" parent="1" vertex="1">
          <mxGeometry x="1181" y="160" width="95" height="40" as="geometry" />
        </mxCell>
        <mxCell id="txzuhLuvdfgNLgQ4ZMH0-81" value="" style="edgeStyle=orthogonalEdgeStyle;rounded=0;orthogonalLoop=1;jettySize=auto;html=1;" parent="1" source="txzuhLuvdfgNLgQ4ZMH0-82" target="txzuhLuvdfgNLgQ4ZMH0-94" edge="1">
          <mxGeometry relative="1" as="geometry" />
        </mxCell>
        <mxCell id="txzuhLuvdfgNLgQ4ZMH0-82" value="R[8] &amp;lt;= FFh" style="rounded=1;whiteSpace=wrap;html=1;fontFamily=Verdana;" parent="1" vertex="1">
          <mxGeometry x="1460" y="90" width="95" height="40" as="geometry" />
        </mxCell>
        <mxCell id="txzuhLuvdfgNLgQ4ZMH0-83" style="edgeStyle=orthogonalEdgeStyle;rounded=0;orthogonalLoop=1;jettySize=auto;html=1;exitX=0.5;exitY=1;exitDx=0;exitDy=0;entryX=0.5;entryY=0;entryDx=0;entryDy=0;fontFamily=Verdana;" parent="1" source="txzuhLuvdfgNLgQ4ZMH0-84" target="txzuhLuvdfgNLgQ4ZMH0-87" edge="1">
          <mxGeometry relative="1" as="geometry" />
        </mxCell>
        <mxCell id="txzuhLuvdfgNLgQ4ZMH0-84" value="LED &amp;lt;= R[8]" style="rounded=1;whiteSpace=wrap;html=1;fontFamily=Verdana;" parent="1" vertex="1">
          <mxGeometry x="1460" y="260" width="95" height="40" as="geometry" />
        </mxCell>
        <mxCell id="txzuhLuvdfgNLgQ4ZMH0-85" style="edgeStyle=orthogonalEdgeStyle;rounded=0;orthogonalLoop=1;jettySize=auto;html=1;exitX=1;exitY=0.5;exitDx=0;exitDy=0;fontFamily=Verdana;" parent="1" source="txzuhLuvdfgNLgQ4ZMH0-87" edge="1">
          <mxGeometry relative="1" as="geometry">
            <mxPoint x="1508" y="319.9999999999999" as="targetPoint" />
          </mxGeometry>
        </mxCell>
        <mxCell id="txzuhLuvdfgNLgQ4ZMH0-86" style="edgeStyle=orthogonalEdgeStyle;rounded=0;orthogonalLoop=1;jettySize=auto;html=1;exitX=0.5;exitY=1;exitDx=0;exitDy=0;entryX=0.5;entryY=0;entryDx=0;entryDy=0;fontFamily=Verdana;" parent="1" source="txzuhLuvdfgNLgQ4ZMH0-87" target="txzuhLuvdfgNLgQ4ZMH0-88" edge="1">
          <mxGeometry relative="1" as="geometry" />
        </mxCell>
        <mxCell id="txzuhLuvdfgNLgQ4ZMH0-87" value="RUN" style="rhombus;whiteSpace=wrap;html=1;fontFamily=Verdana;" parent="1" vertex="1">
          <mxGeometry x="1460" y="340" width="95" height="80" as="geometry" />
        </mxCell>
        <mxCell id="txzuhLuvdfgNLgQ4ZMH0-88" value="8" style="shape=offPageConnector;whiteSpace=wrap;html=1;fontFamily=Verdana;" parent="1" vertex="1">
          <mxGeometry x="1488.75" y="460" width="37.5" height="40" as="geometry" />
        </mxCell>
        <mxCell id="txzuhLuvdfgNLgQ4ZMH0-89" value="SIM" style="text;html=1;strokeColor=none;fillColor=none;align=center;verticalAlign=middle;whiteSpace=wrap;rounded=0;fontFamily=Verdana;" parent="1" vertex="1">
          <mxGeometry x="1505" y="430" width="40" height="20" as="geometry" />
        </mxCell>
        <mxCell id="txzuhLuvdfgNLgQ4ZMH0-90" value="NÃO" style="text;html=1;strokeColor=none;fillColor=none;align=center;verticalAlign=middle;whiteSpace=wrap;rounded=0;fontFamily=Verdana;" parent="1" vertex="1">
          <mxGeometry x="1540" y="360" width="40" height="20" as="geometry" />
        </mxCell>
        <mxCell id="txzuhLuvdfgNLgQ4ZMH0-91" style="edgeStyle=orthogonalEdgeStyle;rounded=0;orthogonalLoop=1;jettySize=auto;html=1;exitX=0.5;exitY=1;exitDx=0;exitDy=0;entryX=0.5;entryY=0;entryDx=0;entryDy=0;fontFamily=Verdana;" parent="1" source="txzuhLuvdfgNLgQ4ZMH0-92" target="txzuhLuvdfgNLgQ4ZMH0-82" edge="1">
          <mxGeometry relative="1" as="geometry" />
        </mxCell>
        <mxCell id="txzuhLuvdfgNLgQ4ZMH0-92" value="7" style="shape=offPageConnector;whiteSpace=wrap;html=1;fontFamily=Verdana;" parent="1" vertex="1">
          <mxGeometry x="1488.75" y="20" width="37.5" height="40" as="geometry" />
        </mxCell>
        <mxCell id="txzuhLuvdfgNLgQ4ZMH0-93" value="" style="edgeStyle=orthogonalEdgeStyle;rounded=0;orthogonalLoop=1;jettySize=auto;html=1;" parent="1" source="txzuhLuvdfgNLgQ4ZMH0-94" target="txzuhLuvdfgNLgQ4ZMH0-84" edge="1">
          <mxGeometry relative="1" as="geometry" />
        </mxCell>
        <mxCell id="txzuhLuvdfgNLgQ4ZMH0-94" value="R[8] =&amp;gt; D[17]" style="rounded=1;whiteSpace=wrap;html=1;fontFamily=Verdana;" parent="1" vertex="1">
          <mxGeometry x="1460" y="170" width="95" height="40" as="geometry" />
        </mxCell>
        <mxCell id="txzuhLuvdfgNLgQ4ZMH0-95" value="" style="endArrow=none;html=1;" parent="1" edge="1">
          <mxGeometry width="50" height="50" relative="1" as="geometry">
            <mxPoint x="789" y="520" as="sourcePoint" />
            <mxPoint x="788.75" as="targetPoint" />
          </mxGeometry>
        </mxCell>
        <mxCell id="kz4sXC0xfZf2EjV51EIM-90" style="edgeStyle=orthogonalEdgeStyle;rounded=0;orthogonalLoop=1;jettySize=auto;html=1;exitX=0.5;exitY=1;exitDx=0;exitDy=0;entryX=0.5;entryY=0;entryDx=0;entryDy=0;fontFamily=Verdana;" parent="1" source="kz4sXC0xfZf2EjV51EIM-91" target="kz4sXC0xfZf2EjV51EIM-94" edge="1">
          <mxGeometry relative="1" as="geometry" />
        </mxCell>
        <mxCell id="kz4sXC0xfZf2EjV51EIM-91" value="R[15] &amp;lt;= R[1] - R[2]" style="rounded=1;whiteSpace=wrap;html=1;fontFamily=Verdana;" parent="1" vertex="1">
          <mxGeometry x="259" y="713" width="160" height="40" as="geometry" />
        </mxCell>
        <mxCell id="kz4sXC0xfZf2EjV51EIM-92" style="edgeStyle=orthogonalEdgeStyle;rounded=0;orthogonalLoop=1;jettySize=auto;html=1;exitX=1;exitY=0.5;exitDx=0;exitDy=0;fontFamily=Verdana;entryX=0.5;entryY=0;entryDx=0;entryDy=0;" parent="1" source="kz4sXC0xfZf2EjV51EIM-94" target="kz4sXC0xfZf2EjV51EIM-96" edge="1">
          <mxGeometry relative="1" as="geometry">
            <mxPoint x="431.5" y="833" as="targetPoint" />
          </mxGeometry>
        </mxCell>
        <mxCell id="Eudr2HJVChkKzcNzHswi-14" value="" style="edgeStyle=orthogonalEdgeStyle;rounded=0;orthogonalLoop=1;jettySize=auto;html=1;" edge="1" parent="1" source="kz4sXC0xfZf2EjV51EIM-94" target="Eudr2HJVChkKzcNzHswi-13">
          <mxGeometry relative="1" as="geometry" />
        </mxCell>
        <mxCell id="kz4sXC0xfZf2EjV51EIM-94" value="R[15] &amp;lt; 0&lt;br&gt;?" style="rhombus;whiteSpace=wrap;html=1;fontFamily=Verdana;" parent="1" vertex="1">
          <mxGeometry x="291.5" y="793" width="95" height="80" as="geometry" />
        </mxCell>
        <mxCell id="Eudr2HJVChkKzcNzHswi-17" style="edgeStyle=orthogonalEdgeStyle;rounded=0;orthogonalLoop=1;jettySize=auto;html=1;exitX=0.5;exitY=1;exitDx=0;exitDy=0;" edge="1" parent="1" source="kz4sXC0xfZf2EjV51EIM-96">
          <mxGeometry relative="1" as="geometry">
            <mxPoint x="340" y="1023" as="targetPoint" />
            <Array as="points">
              <mxPoint x="503" y="1023" />
            </Array>
          </mxGeometry>
        </mxCell>
        <mxCell id="kz4sXC0xfZf2EjV51EIM-96" value="D[11] &amp;lt;= R[1]&lt;br&gt;D[10] &amp;lt;= R[2]" style="rounded=1;whiteSpace=wrap;html=1;fontFamily=Verdana;" parent="1" vertex="1">
          <mxGeometry x="438" y="853" width="130" height="70" as="geometry" />
        </mxCell>
        <mxCell id="kz4sXC0xfZf2EjV51EIM-97" value="NÃO" style="text;html=1;strokeColor=none;fillColor=none;align=center;verticalAlign=middle;whiteSpace=wrap;rounded=0;fontFamily=Verdana;" parent="1" vertex="1">
          <mxGeometry x="384" y="813" width="40" height="20" as="geometry" />
        </mxCell>
        <mxCell id="Eudr2HJVChkKzcNzHswi-12" value="" style="edgeStyle=orthogonalEdgeStyle;rounded=0;orthogonalLoop=1;jettySize=auto;html=1;" edge="1" parent="1" source="kz4sXC0xfZf2EjV51EIM-99" target="Eudr2HJVChkKzcNzHswi-10">
          <mxGeometry relative="1" as="geometry" />
        </mxCell>
        <mxCell id="kz4sXC0xfZf2EjV51EIM-99" value="9" style="shape=offPageConnector;whiteSpace=wrap;html=1;fontFamily=Verdana;" parent="1" vertex="1">
          <mxGeometry x="320.25" y="528" width="37.5" height="40" as="geometry" />
        </mxCell>
        <mxCell id="kz4sXC0xfZf2EjV51EIM-159" value="" style="edgeStyle=orthogonalEdgeStyle;rounded=0;orthogonalLoop=1;jettySize=auto;html=1;" parent="1" source="kz4sXC0xfZf2EjV51EIM-160" target="kz4sXC0xfZf2EjV51EIM-164" edge="1">
          <mxGeometry relative="1" as="geometry" />
        </mxCell>
        <mxCell id="kz4sXC0xfZf2EjV51EIM-160" value="R[12] &amp;lt;= 02h" style="rounded=1;whiteSpace=wrap;html=1;fontFamily=Verdana;" parent="1" vertex="1">
          <mxGeometry x="68.75" y="720" width="101.25" height="40" as="geometry" />
        </mxCell>
        <mxCell id="Eudr2HJVChkKzcNzHswi-94" value="" style="edgeStyle=orthogonalEdgeStyle;rounded=0;orthogonalLoop=1;jettySize=auto;html=1;" edge="1" parent="1" source="kz4sXC0xfZf2EjV51EIM-164" target="kz4sXC0xfZf2EjV51EIM-169">
          <mxGeometry relative="1" as="geometry" />
        </mxCell>
        <mxCell id="kz4sXC0xfZf2EjV51EIM-164" value="D[1F] &amp;lt;= R[12]" style="rounded=1;whiteSpace=wrap;html=1;fontFamily=Verdana;" parent="1" vertex="1">
          <mxGeometry x="68.75" y="800" width="101.25" height="40" as="geometry" />
        </mxCell>
        <mxCell id="kz4sXC0xfZf2EjV51EIM-168" value="" style="edgeStyle=orthogonalEdgeStyle;rounded=0;orthogonalLoop=1;jettySize=auto;html=1;" parent="1" source="kz4sXC0xfZf2EjV51EIM-167" target="kz4sXC0xfZf2EjV51EIM-160" edge="1">
          <mxGeometry relative="1" as="geometry" />
        </mxCell>
        <mxCell id="kz4sXC0xfZf2EjV51EIM-167" value="8" style="shape=offPageConnector;whiteSpace=wrap;html=1;fontFamily=Verdana;" parent="1" vertex="1">
          <mxGeometry x="100.63" y="640" width="37.5" height="40" as="geometry" />
        </mxCell>
        <mxCell id="kz4sXC0xfZf2EjV51EIM-169" value="9" style="shape=offPageConnector;whiteSpace=wrap;html=1;fontFamily=Verdana;" parent="1" vertex="1">
          <mxGeometry x="100.63" y="880" width="37.5" height="40" as="geometry" />
        </mxCell>
        <mxCell id="Eudr2HJVChkKzcNzHswi-11" value="" style="edgeStyle=orthogonalEdgeStyle;rounded=0;orthogonalLoop=1;jettySize=auto;html=1;" edge="1" parent="1" source="Eudr2HJVChkKzcNzHswi-10" target="kz4sXC0xfZf2EjV51EIM-91">
          <mxGeometry relative="1" as="geometry" />
        </mxCell>
        <mxCell id="Eudr2HJVChkKzcNzHswi-10" value="R[1] &amp;lt;= D[10]&lt;br&gt;R[2] &amp;lt;= D[11]" style="rounded=1;whiteSpace=wrap;html=1;fontFamily=Verdana;" vertex="1" parent="1">
          <mxGeometry x="274" y="598" width="130" height="70" as="geometry" />
        </mxCell>
        <mxCell id="Eudr2HJVChkKzcNzHswi-16" value="" style="edgeStyle=orthogonalEdgeStyle;rounded=0;orthogonalLoop=1;jettySize=auto;html=1;" edge="1" parent="1" source="Eudr2HJVChkKzcNzHswi-13" target="Eudr2HJVChkKzcNzHswi-15">
          <mxGeometry relative="1" as="geometry" />
        </mxCell>
        <mxCell id="Eudr2HJVChkKzcNzHswi-13" value="R[12] &amp;lt;= R[12] + R[12]" style="rounded=1;whiteSpace=wrap;html=1;fontFamily=Verdana;" vertex="1" parent="1">
          <mxGeometry x="259" y="943" width="160" height="40" as="geometry" />
        </mxCell>
        <mxCell id="Eudr2HJVChkKzcNzHswi-15" value="10" style="shape=offPageConnector;whiteSpace=wrap;html=1;fontFamily=Verdana;" vertex="1" parent="1">
          <mxGeometry x="320.25" y="1043" width="37.5" height="40" as="geometry" />
        </mxCell>
        <mxCell id="Eudr2HJVChkKzcNzHswi-18" style="edgeStyle=orthogonalEdgeStyle;rounded=0;orthogonalLoop=1;jettySize=auto;html=1;exitX=0.5;exitY=1;exitDx=0;exitDy=0;entryX=0.5;entryY=0;entryDx=0;entryDy=0;fontFamily=Verdana;" edge="1" parent="1" source="Eudr2HJVChkKzcNzHswi-19" target="Eudr2HJVChkKzcNzHswi-22">
          <mxGeometry relative="1" as="geometry" />
        </mxCell>
        <mxCell id="Eudr2HJVChkKzcNzHswi-19" value="R[15] &amp;lt;= R[2] - R[3]" style="rounded=1;whiteSpace=wrap;html=1;fontFamily=Verdana;" vertex="1" parent="1">
          <mxGeometry x="583.5" y="733" width="160" height="40" as="geometry" />
        </mxCell>
        <mxCell id="Eudr2HJVChkKzcNzHswi-20" style="edgeStyle=orthogonalEdgeStyle;rounded=0;orthogonalLoop=1;jettySize=auto;html=1;exitX=1;exitY=0.5;exitDx=0;exitDy=0;fontFamily=Verdana;entryX=0.5;entryY=0;entryDx=0;entryDy=0;" edge="1" parent="1" source="Eudr2HJVChkKzcNzHswi-22" target="Eudr2HJVChkKzcNzHswi-24">
          <mxGeometry relative="1" as="geometry">
            <mxPoint x="756" y="853" as="targetPoint" />
          </mxGeometry>
        </mxCell>
        <mxCell id="Eudr2HJVChkKzcNzHswi-21" value="" style="edgeStyle=orthogonalEdgeStyle;rounded=0;orthogonalLoop=1;jettySize=auto;html=1;" edge="1" parent="1" source="Eudr2HJVChkKzcNzHswi-22" target="Eudr2HJVChkKzcNzHswi-31">
          <mxGeometry relative="1" as="geometry" />
        </mxCell>
        <mxCell id="Eudr2HJVChkKzcNzHswi-22" value="R[15] &amp;lt; 0&lt;br&gt;?" style="rhombus;whiteSpace=wrap;html=1;fontFamily=Verdana;" vertex="1" parent="1">
          <mxGeometry x="616" y="813" width="95" height="80" as="geometry" />
        </mxCell>
        <mxCell id="Eudr2HJVChkKzcNzHswi-23" style="edgeStyle=orthogonalEdgeStyle;rounded=0;orthogonalLoop=1;jettySize=auto;html=1;exitX=0.5;exitY=1;exitDx=0;exitDy=0;" edge="1" parent="1" source="Eudr2HJVChkKzcNzHswi-24">
          <mxGeometry relative="1" as="geometry">
            <mxPoint x="664.5" y="1043" as="targetPoint" />
            <Array as="points">
              <mxPoint x="827.5" y="1043" />
            </Array>
          </mxGeometry>
        </mxCell>
        <mxCell id="Eudr2HJVChkKzcNzHswi-24" value="D[12] &amp;lt;= R[2]&lt;br&gt;D[11] &amp;lt;= R[3]" style="rounded=1;whiteSpace=wrap;html=1;fontFamily=Verdana;" vertex="1" parent="1">
          <mxGeometry x="762.5" y="873" width="130" height="70" as="geometry" />
        </mxCell>
        <mxCell id="Eudr2HJVChkKzcNzHswi-25" value="NÃO" style="text;html=1;strokeColor=none;fillColor=none;align=center;verticalAlign=middle;whiteSpace=wrap;rounded=0;fontFamily=Verdana;" vertex="1" parent="1">
          <mxGeometry x="708.5" y="833" width="40" height="20" as="geometry" />
        </mxCell>
        <mxCell id="Eudr2HJVChkKzcNzHswi-26" value="" style="edgeStyle=orthogonalEdgeStyle;rounded=0;orthogonalLoop=1;jettySize=auto;html=1;" edge="1" parent="1" source="Eudr2HJVChkKzcNzHswi-27" target="Eudr2HJVChkKzcNzHswi-29">
          <mxGeometry relative="1" as="geometry" />
        </mxCell>
        <mxCell id="Eudr2HJVChkKzcNzHswi-27" value="10" style="shape=offPageConnector;whiteSpace=wrap;html=1;fontFamily=Verdana;" vertex="1" parent="1">
          <mxGeometry x="644.75" y="548" width="37.5" height="40" as="geometry" />
        </mxCell>
        <mxCell id="Eudr2HJVChkKzcNzHswi-28" value="" style="edgeStyle=orthogonalEdgeStyle;rounded=0;orthogonalLoop=1;jettySize=auto;html=1;" edge="1" parent="1" source="Eudr2HJVChkKzcNzHswi-29" target="Eudr2HJVChkKzcNzHswi-19">
          <mxGeometry relative="1" as="geometry" />
        </mxCell>
        <mxCell id="Eudr2HJVChkKzcNzHswi-29" value="R[2] &amp;lt;= D[11]&lt;br&gt;R[3] &amp;lt;= D[12]" style="rounded=1;whiteSpace=wrap;html=1;fontFamily=Verdana;" vertex="1" parent="1">
          <mxGeometry x="598.5" y="618" width="130" height="70" as="geometry" />
        </mxCell>
        <mxCell id="Eudr2HJVChkKzcNzHswi-30" value="" style="edgeStyle=orthogonalEdgeStyle;rounded=0;orthogonalLoop=1;jettySize=auto;html=1;" edge="1" parent="1" source="Eudr2HJVChkKzcNzHswi-31" target="Eudr2HJVChkKzcNzHswi-32">
          <mxGeometry relative="1" as="geometry" />
        </mxCell>
        <mxCell id="Eudr2HJVChkKzcNzHswi-31" value="R[12] &amp;lt;= R[12] + R[12]" style="rounded=1;whiteSpace=wrap;html=1;fontFamily=Verdana;" vertex="1" parent="1">
          <mxGeometry x="583.5" y="963" width="160" height="40" as="geometry" />
        </mxCell>
        <mxCell id="Eudr2HJVChkKzcNzHswi-32" value="11" style="shape=offPageConnector;whiteSpace=wrap;html=1;fontFamily=Verdana;" vertex="1" parent="1">
          <mxGeometry x="644.75" y="1063" width="37.5" height="40" as="geometry" />
        </mxCell>
        <mxCell id="Eudr2HJVChkKzcNzHswi-33" style="edgeStyle=orthogonalEdgeStyle;rounded=0;orthogonalLoop=1;jettySize=auto;html=1;exitX=0.5;exitY=1;exitDx=0;exitDy=0;entryX=0.5;entryY=0;entryDx=0;entryDy=0;fontFamily=Verdana;" edge="1" parent="1" source="Eudr2HJVChkKzcNzHswi-34" target="Eudr2HJVChkKzcNzHswi-37">
          <mxGeometry relative="1" as="geometry" />
        </mxCell>
        <mxCell id="Eudr2HJVChkKzcNzHswi-34" value="R[15] &amp;lt;= R[3] - R[4]" style="rounded=1;whiteSpace=wrap;html=1;fontFamily=Verdana;" vertex="1" parent="1">
          <mxGeometry x="907.5" y="723" width="160" height="40" as="geometry" />
        </mxCell>
        <mxCell id="Eudr2HJVChkKzcNzHswi-35" style="edgeStyle=orthogonalEdgeStyle;rounded=0;orthogonalLoop=1;jettySize=auto;html=1;exitX=1;exitY=0.5;exitDx=0;exitDy=0;fontFamily=Verdana;entryX=0.5;entryY=0;entryDx=0;entryDy=0;" edge="1" parent="1" source="Eudr2HJVChkKzcNzHswi-37" target="Eudr2HJVChkKzcNzHswi-39">
          <mxGeometry relative="1" as="geometry">
            <mxPoint x="1080" y="843" as="targetPoint" />
          </mxGeometry>
        </mxCell>
        <mxCell id="Eudr2HJVChkKzcNzHswi-36" value="" style="edgeStyle=orthogonalEdgeStyle;rounded=0;orthogonalLoop=1;jettySize=auto;html=1;" edge="1" parent="1" source="Eudr2HJVChkKzcNzHswi-37" target="Eudr2HJVChkKzcNzHswi-46">
          <mxGeometry relative="1" as="geometry" />
        </mxCell>
        <mxCell id="Eudr2HJVChkKzcNzHswi-37" value="R[15] &amp;lt; 0&lt;br&gt;?" style="rhombus;whiteSpace=wrap;html=1;fontFamily=Verdana;" vertex="1" parent="1">
          <mxGeometry x="940" y="803" width="95" height="80" as="geometry" />
        </mxCell>
        <mxCell id="Eudr2HJVChkKzcNzHswi-38" style="edgeStyle=orthogonalEdgeStyle;rounded=0;orthogonalLoop=1;jettySize=auto;html=1;exitX=0.5;exitY=1;exitDx=0;exitDy=0;" edge="1" parent="1" source="Eudr2HJVChkKzcNzHswi-39">
          <mxGeometry relative="1" as="geometry">
            <mxPoint x="988.5" y="1033" as="targetPoint" />
            <Array as="points">
              <mxPoint x="1151.5" y="1033" />
            </Array>
          </mxGeometry>
        </mxCell>
        <mxCell id="Eudr2HJVChkKzcNzHswi-39" value="D[13] &amp;lt;= R[3]&lt;br&gt;D[12] &amp;lt;= R[4]" style="rounded=1;whiteSpace=wrap;html=1;fontFamily=Verdana;" vertex="1" parent="1">
          <mxGeometry x="1086.5" y="863" width="130" height="70" as="geometry" />
        </mxCell>
        <mxCell id="Eudr2HJVChkKzcNzHswi-40" value="NÃO" style="text;html=1;strokeColor=none;fillColor=none;align=center;verticalAlign=middle;whiteSpace=wrap;rounded=0;fontFamily=Verdana;" vertex="1" parent="1">
          <mxGeometry x="1032.5" y="823" width="40" height="20" as="geometry" />
        </mxCell>
        <mxCell id="Eudr2HJVChkKzcNzHswi-41" value="" style="edgeStyle=orthogonalEdgeStyle;rounded=0;orthogonalLoop=1;jettySize=auto;html=1;" edge="1" parent="1" source="Eudr2HJVChkKzcNzHswi-42" target="Eudr2HJVChkKzcNzHswi-44">
          <mxGeometry relative="1" as="geometry" />
        </mxCell>
        <mxCell id="Eudr2HJVChkKzcNzHswi-42" value="11" style="shape=offPageConnector;whiteSpace=wrap;html=1;fontFamily=Verdana;" vertex="1" parent="1">
          <mxGeometry x="968.75" y="538" width="37.5" height="40" as="geometry" />
        </mxCell>
        <mxCell id="Eudr2HJVChkKzcNzHswi-43" value="" style="edgeStyle=orthogonalEdgeStyle;rounded=0;orthogonalLoop=1;jettySize=auto;html=1;" edge="1" parent="1" source="Eudr2HJVChkKzcNzHswi-44" target="Eudr2HJVChkKzcNzHswi-34">
          <mxGeometry relative="1" as="geometry" />
        </mxCell>
        <mxCell id="Eudr2HJVChkKzcNzHswi-44" value="R[3] &amp;lt;= D[12]&lt;br&gt;R[4] &amp;lt;= D[13]" style="rounded=1;whiteSpace=wrap;html=1;fontFamily=Verdana;" vertex="1" parent="1">
          <mxGeometry x="922.5" y="608" width="130" height="70" as="geometry" />
        </mxCell>
        <mxCell id="Eudr2HJVChkKzcNzHswi-45" value="" style="edgeStyle=orthogonalEdgeStyle;rounded=0;orthogonalLoop=1;jettySize=auto;html=1;" edge="1" parent="1" source="Eudr2HJVChkKzcNzHswi-46" target="Eudr2HJVChkKzcNzHswi-47">
          <mxGeometry relative="1" as="geometry" />
        </mxCell>
        <mxCell id="Eudr2HJVChkKzcNzHswi-46" value="R[12] &amp;lt;= R[12] + R[12]" style="rounded=1;whiteSpace=wrap;html=1;fontFamily=Verdana;" vertex="1" parent="1">
          <mxGeometry x="907.5" y="953" width="160" height="40" as="geometry" />
        </mxCell>
        <mxCell id="Eudr2HJVChkKzcNzHswi-47" value="12" style="shape=offPageConnector;whiteSpace=wrap;html=1;fontFamily=Verdana;" vertex="1" parent="1">
          <mxGeometry x="968.75" y="1053" width="37.5" height="40" as="geometry" />
        </mxCell>
        <mxCell id="Eudr2HJVChkKzcNzHswi-48" style="edgeStyle=orthogonalEdgeStyle;rounded=0;orthogonalLoop=1;jettySize=auto;html=1;exitX=0.5;exitY=1;exitDx=0;exitDy=0;entryX=0.5;entryY=0;entryDx=0;entryDy=0;fontFamily=Verdana;" edge="1" parent="1" source="Eudr2HJVChkKzcNzHswi-49" target="Eudr2HJVChkKzcNzHswi-52">
          <mxGeometry relative="1" as="geometry" />
        </mxCell>
        <mxCell id="Eudr2HJVChkKzcNzHswi-49" value="R[15] &amp;lt;= R[4] - R[5]" style="rounded=1;whiteSpace=wrap;html=1;fontFamily=Verdana;" vertex="1" parent="1">
          <mxGeometry x="1236" y="723" width="160" height="40" as="geometry" />
        </mxCell>
        <mxCell id="Eudr2HJVChkKzcNzHswi-50" style="edgeStyle=orthogonalEdgeStyle;rounded=0;orthogonalLoop=1;jettySize=auto;html=1;exitX=1;exitY=0.5;exitDx=0;exitDy=0;fontFamily=Verdana;entryX=0.5;entryY=0;entryDx=0;entryDy=0;" edge="1" parent="1" source="Eudr2HJVChkKzcNzHswi-52" target="Eudr2HJVChkKzcNzHswi-54">
          <mxGeometry relative="1" as="geometry">
            <mxPoint x="1408.5" y="843" as="targetPoint" />
          </mxGeometry>
        </mxCell>
        <mxCell id="Eudr2HJVChkKzcNzHswi-51" value="" style="edgeStyle=orthogonalEdgeStyle;rounded=0;orthogonalLoop=1;jettySize=auto;html=1;" edge="1" parent="1" source="Eudr2HJVChkKzcNzHswi-52" target="Eudr2HJVChkKzcNzHswi-61">
          <mxGeometry relative="1" as="geometry" />
        </mxCell>
        <mxCell id="Eudr2HJVChkKzcNzHswi-52" value="R[15] &amp;lt; 0&lt;br&gt;?" style="rhombus;whiteSpace=wrap;html=1;fontFamily=Verdana;" vertex="1" parent="1">
          <mxGeometry x="1268.5" y="803" width="95" height="80" as="geometry" />
        </mxCell>
        <mxCell id="Eudr2HJVChkKzcNzHswi-53" style="edgeStyle=orthogonalEdgeStyle;rounded=0;orthogonalLoop=1;jettySize=auto;html=1;exitX=0.5;exitY=1;exitDx=0;exitDy=0;" edge="1" parent="1" source="Eudr2HJVChkKzcNzHswi-54">
          <mxGeometry relative="1" as="geometry">
            <mxPoint x="1317" y="1033" as="targetPoint" />
            <Array as="points">
              <mxPoint x="1480" y="1033" />
            </Array>
          </mxGeometry>
        </mxCell>
        <mxCell id="Eudr2HJVChkKzcNzHswi-54" value="D[14] &amp;lt;= R[4]&lt;br&gt;D[13] &amp;lt;= R[5]" style="rounded=1;whiteSpace=wrap;html=1;fontFamily=Verdana;" vertex="1" parent="1">
          <mxGeometry x="1415" y="863" width="130" height="70" as="geometry" />
        </mxCell>
        <mxCell id="Eudr2HJVChkKzcNzHswi-55" value="NÃO" style="text;html=1;strokeColor=none;fillColor=none;align=center;verticalAlign=middle;whiteSpace=wrap;rounded=0;fontFamily=Verdana;" vertex="1" parent="1">
          <mxGeometry x="1361" y="823" width="40" height="20" as="geometry" />
        </mxCell>
        <mxCell id="Eudr2HJVChkKzcNzHswi-56" value="" style="edgeStyle=orthogonalEdgeStyle;rounded=0;orthogonalLoop=1;jettySize=auto;html=1;" edge="1" parent="1" source="Eudr2HJVChkKzcNzHswi-57" target="Eudr2HJVChkKzcNzHswi-59">
          <mxGeometry relative="1" as="geometry" />
        </mxCell>
        <mxCell id="Eudr2HJVChkKzcNzHswi-57" value="12" style="shape=offPageConnector;whiteSpace=wrap;html=1;fontFamily=Verdana;" vertex="1" parent="1">
          <mxGeometry x="1297.25" y="538" width="37.5" height="40" as="geometry" />
        </mxCell>
        <mxCell id="Eudr2HJVChkKzcNzHswi-58" value="" style="edgeStyle=orthogonalEdgeStyle;rounded=0;orthogonalLoop=1;jettySize=auto;html=1;" edge="1" parent="1" source="Eudr2HJVChkKzcNzHswi-59" target="Eudr2HJVChkKzcNzHswi-49">
          <mxGeometry relative="1" as="geometry" />
        </mxCell>
        <mxCell id="Eudr2HJVChkKzcNzHswi-59" value="R[4] &amp;lt;= D[13]&lt;br&gt;R[5] &amp;lt;= D[14]" style="rounded=1;whiteSpace=wrap;html=1;fontFamily=Verdana;" vertex="1" parent="1">
          <mxGeometry x="1251" y="608" width="130" height="70" as="geometry" />
        </mxCell>
        <mxCell id="Eudr2HJVChkKzcNzHswi-60" value="" style="edgeStyle=orthogonalEdgeStyle;rounded=0;orthogonalLoop=1;jettySize=auto;html=1;" edge="1" parent="1" source="Eudr2HJVChkKzcNzHswi-61" target="Eudr2HJVChkKzcNzHswi-62">
          <mxGeometry relative="1" as="geometry" />
        </mxCell>
        <mxCell id="Eudr2HJVChkKzcNzHswi-61" value="R[12] &amp;lt;= R[12] + R[12]" style="rounded=1;whiteSpace=wrap;html=1;fontFamily=Verdana;" vertex="1" parent="1">
          <mxGeometry x="1236" y="953" width="160" height="40" as="geometry" />
        </mxCell>
        <mxCell id="Eudr2HJVChkKzcNzHswi-62" value="13" style="shape=offPageConnector;whiteSpace=wrap;html=1;fontFamily=Verdana;" vertex="1" parent="1">
          <mxGeometry x="1297.25" y="1053" width="37.5" height="40" as="geometry" />
        </mxCell>
        <mxCell id="Eudr2HJVChkKzcNzHswi-63" style="edgeStyle=orthogonalEdgeStyle;rounded=0;orthogonalLoop=1;jettySize=auto;html=1;exitX=0.5;exitY=1;exitDx=0;exitDy=0;entryX=0.5;entryY=0;entryDx=0;entryDy=0;fontFamily=Verdana;" edge="1" parent="1" source="Eudr2HJVChkKzcNzHswi-64" target="Eudr2HJVChkKzcNzHswi-67">
          <mxGeometry relative="1" as="geometry" />
        </mxCell>
        <mxCell id="Eudr2HJVChkKzcNzHswi-64" value="R[15] &amp;lt;= R[5] - R[6]" style="rounded=1;whiteSpace=wrap;html=1;fontFamily=Verdana;" vertex="1" parent="1">
          <mxGeometry x="259" y="1315" width="160" height="40" as="geometry" />
        </mxCell>
        <mxCell id="Eudr2HJVChkKzcNzHswi-65" style="edgeStyle=orthogonalEdgeStyle;rounded=0;orthogonalLoop=1;jettySize=auto;html=1;exitX=1;exitY=0.5;exitDx=0;exitDy=0;fontFamily=Verdana;entryX=0.5;entryY=0;entryDx=0;entryDy=0;" edge="1" parent="1" source="Eudr2HJVChkKzcNzHswi-67" target="Eudr2HJVChkKzcNzHswi-69">
          <mxGeometry relative="1" as="geometry">
            <mxPoint x="431.5" y="1435" as="targetPoint" />
          </mxGeometry>
        </mxCell>
        <mxCell id="Eudr2HJVChkKzcNzHswi-66" value="" style="edgeStyle=orthogonalEdgeStyle;rounded=0;orthogonalLoop=1;jettySize=auto;html=1;" edge="1" parent="1" source="Eudr2HJVChkKzcNzHswi-67" target="Eudr2HJVChkKzcNzHswi-76">
          <mxGeometry relative="1" as="geometry" />
        </mxCell>
        <mxCell id="Eudr2HJVChkKzcNzHswi-67" value="R[15] &amp;lt; 0&lt;br&gt;?" style="rhombus;whiteSpace=wrap;html=1;fontFamily=Verdana;" vertex="1" parent="1">
          <mxGeometry x="291.5" y="1395" width="95" height="80" as="geometry" />
        </mxCell>
        <mxCell id="Eudr2HJVChkKzcNzHswi-68" style="edgeStyle=orthogonalEdgeStyle;rounded=0;orthogonalLoop=1;jettySize=auto;html=1;exitX=0.5;exitY=1;exitDx=0;exitDy=0;" edge="1" parent="1" source="Eudr2HJVChkKzcNzHswi-69">
          <mxGeometry relative="1" as="geometry">
            <mxPoint x="340" y="1625" as="targetPoint" />
            <Array as="points">
              <mxPoint x="503" y="1625" />
            </Array>
          </mxGeometry>
        </mxCell>
        <mxCell id="Eudr2HJVChkKzcNzHswi-69" value="D[15] &amp;lt;= R[5]&lt;br&gt;D[14] &amp;lt;= R[6]" style="rounded=1;whiteSpace=wrap;html=1;fontFamily=Verdana;" vertex="1" parent="1">
          <mxGeometry x="438" y="1455" width="130" height="70" as="geometry" />
        </mxCell>
        <mxCell id="Eudr2HJVChkKzcNzHswi-70" value="NÃO" style="text;html=1;strokeColor=none;fillColor=none;align=center;verticalAlign=middle;whiteSpace=wrap;rounded=0;fontFamily=Verdana;" vertex="1" parent="1">
          <mxGeometry x="384" y="1415" width="40" height="20" as="geometry" />
        </mxCell>
        <mxCell id="Eudr2HJVChkKzcNzHswi-71" value="" style="edgeStyle=orthogonalEdgeStyle;rounded=0;orthogonalLoop=1;jettySize=auto;html=1;" edge="1" parent="1" source="Eudr2HJVChkKzcNzHswi-72" target="Eudr2HJVChkKzcNzHswi-74">
          <mxGeometry relative="1" as="geometry" />
        </mxCell>
        <mxCell id="Eudr2HJVChkKzcNzHswi-72" value="13" style="shape=offPageConnector;whiteSpace=wrap;html=1;fontFamily=Verdana;" vertex="1" parent="1">
          <mxGeometry x="320.25" y="1130" width="37.5" height="40" as="geometry" />
        </mxCell>
        <mxCell id="Eudr2HJVChkKzcNzHswi-73" value="" style="edgeStyle=orthogonalEdgeStyle;rounded=0;orthogonalLoop=1;jettySize=auto;html=1;" edge="1" parent="1" source="Eudr2HJVChkKzcNzHswi-74" target="Eudr2HJVChkKzcNzHswi-64">
          <mxGeometry relative="1" as="geometry" />
        </mxCell>
        <mxCell id="Eudr2HJVChkKzcNzHswi-74" value="R[5] &amp;lt;= D[14]&lt;br&gt;R[6] &amp;lt;= D[15]" style="rounded=1;whiteSpace=wrap;html=1;fontFamily=Verdana;" vertex="1" parent="1">
          <mxGeometry x="274" y="1200" width="130" height="70" as="geometry" />
        </mxCell>
        <mxCell id="Eudr2HJVChkKzcNzHswi-75" value="" style="edgeStyle=orthogonalEdgeStyle;rounded=0;orthogonalLoop=1;jettySize=auto;html=1;" edge="1" parent="1" source="Eudr2HJVChkKzcNzHswi-76" target="Eudr2HJVChkKzcNzHswi-77">
          <mxGeometry relative="1" as="geometry" />
        </mxCell>
        <mxCell id="Eudr2HJVChkKzcNzHswi-76" value="R[12] &amp;lt;= R[12] + R[12]" style="rounded=1;whiteSpace=wrap;html=1;fontFamily=Verdana;" vertex="1" parent="1">
          <mxGeometry x="259" y="1545" width="160" height="40" as="geometry" />
        </mxCell>
        <mxCell id="Eudr2HJVChkKzcNzHswi-77" value="14" style="shape=offPageConnector;whiteSpace=wrap;html=1;fontFamily=Verdana;" vertex="1" parent="1">
          <mxGeometry x="320.25" y="1645" width="37.5" height="40" as="geometry" />
        </mxCell>
        <mxCell id="Eudr2HJVChkKzcNzHswi-78" style="edgeStyle=orthogonalEdgeStyle;rounded=0;orthogonalLoop=1;jettySize=auto;html=1;exitX=0.5;exitY=1;exitDx=0;exitDy=0;entryX=0.5;entryY=0;entryDx=0;entryDy=0;fontFamily=Verdana;" edge="1" parent="1" source="Eudr2HJVChkKzcNzHswi-79" target="Eudr2HJVChkKzcNzHswi-82">
          <mxGeometry relative="1" as="geometry" />
        </mxCell>
        <mxCell id="Eudr2HJVChkKzcNzHswi-79" value="R[15] &amp;lt;= R[6] - R[7]" style="rounded=1;whiteSpace=wrap;html=1;fontFamily=Verdana;" vertex="1" parent="1">
          <mxGeometry x="682.25" y="1315" width="160" height="40" as="geometry" />
        </mxCell>
        <mxCell id="Eudr2HJVChkKzcNzHswi-80" style="edgeStyle=orthogonalEdgeStyle;rounded=0;orthogonalLoop=1;jettySize=auto;html=1;exitX=1;exitY=0.5;exitDx=0;exitDy=0;fontFamily=Verdana;entryX=0.5;entryY=0;entryDx=0;entryDy=0;" edge="1" parent="1" source="Eudr2HJVChkKzcNzHswi-82" target="Eudr2HJVChkKzcNzHswi-84">
          <mxGeometry relative="1" as="geometry">
            <mxPoint x="854.75" y="1435" as="targetPoint" />
          </mxGeometry>
        </mxCell>
        <mxCell id="Eudr2HJVChkKzcNzHswi-81" value="" style="edgeStyle=orthogonalEdgeStyle;rounded=0;orthogonalLoop=1;jettySize=auto;html=1;" edge="1" parent="1" source="Eudr2HJVChkKzcNzHswi-82" target="Eudr2HJVChkKzcNzHswi-91">
          <mxGeometry relative="1" as="geometry" />
        </mxCell>
        <mxCell id="Eudr2HJVChkKzcNzHswi-82" value="R[15] &amp;lt; 0&lt;br&gt;?" style="rhombus;whiteSpace=wrap;html=1;fontFamily=Verdana;" vertex="1" parent="1">
          <mxGeometry x="714.75" y="1395" width="95" height="80" as="geometry" />
        </mxCell>
        <mxCell id="Eudr2HJVChkKzcNzHswi-83" style="edgeStyle=orthogonalEdgeStyle;rounded=0;orthogonalLoop=1;jettySize=auto;html=1;exitX=0.5;exitY=1;exitDx=0;exitDy=0;" edge="1" parent="1" source="Eudr2HJVChkKzcNzHswi-84">
          <mxGeometry relative="1" as="geometry">
            <mxPoint x="763.25" y="1625" as="targetPoint" />
            <Array as="points">
              <mxPoint x="926.25" y="1625" />
            </Array>
          </mxGeometry>
        </mxCell>
        <mxCell id="Eudr2HJVChkKzcNzHswi-84" value="D[16] &amp;lt;= R[6]&lt;br&gt;D[15] &amp;lt;= R[7]" style="rounded=1;whiteSpace=wrap;html=1;fontFamily=Verdana;" vertex="1" parent="1">
          <mxGeometry x="861.25" y="1455" width="130" height="70" as="geometry" />
        </mxCell>
        <mxCell id="Eudr2HJVChkKzcNzHswi-85" value="NÃO" style="text;html=1;strokeColor=none;fillColor=none;align=center;verticalAlign=middle;whiteSpace=wrap;rounded=0;fontFamily=Verdana;" vertex="1" parent="1">
          <mxGeometry x="807.25" y="1415" width="40" height="20" as="geometry" />
        </mxCell>
        <mxCell id="Eudr2HJVChkKzcNzHswi-86" value="" style="edgeStyle=orthogonalEdgeStyle;rounded=0;orthogonalLoop=1;jettySize=auto;html=1;" edge="1" parent="1" source="Eudr2HJVChkKzcNzHswi-87" target="Eudr2HJVChkKzcNzHswi-89">
          <mxGeometry relative="1" as="geometry" />
        </mxCell>
        <mxCell id="Eudr2HJVChkKzcNzHswi-87" value="14" style="shape=offPageConnector;whiteSpace=wrap;html=1;fontFamily=Verdana;" vertex="1" parent="1">
          <mxGeometry x="743.5" y="1130" width="37.5" height="40" as="geometry" />
        </mxCell>
        <mxCell id="Eudr2HJVChkKzcNzHswi-88" value="" style="edgeStyle=orthogonalEdgeStyle;rounded=0;orthogonalLoop=1;jettySize=auto;html=1;" edge="1" parent="1" source="Eudr2HJVChkKzcNzHswi-89" target="Eudr2HJVChkKzcNzHswi-79">
          <mxGeometry relative="1" as="geometry" />
        </mxCell>
        <mxCell id="Eudr2HJVChkKzcNzHswi-89" value="R[6] &amp;lt;= D[15]&lt;br&gt;R[7] &amp;lt;= D[16]" style="rounded=1;whiteSpace=wrap;html=1;fontFamily=Verdana;" vertex="1" parent="1">
          <mxGeometry x="697.25" y="1200" width="130" height="70" as="geometry" />
        </mxCell>
        <mxCell id="Eudr2HJVChkKzcNzHswi-90" value="" style="edgeStyle=orthogonalEdgeStyle;rounded=0;orthogonalLoop=1;jettySize=auto;html=1;" edge="1" parent="1" source="Eudr2HJVChkKzcNzHswi-91" target="Eudr2HJVChkKzcNzHswi-92">
          <mxGeometry relative="1" as="geometry" />
        </mxCell>
        <mxCell id="Eudr2HJVChkKzcNzHswi-91" value="R[12] &amp;lt;= R[12] + R[12]" style="rounded=1;whiteSpace=wrap;html=1;fontFamily=Verdana;" vertex="1" parent="1">
          <mxGeometry x="682.25" y="1545" width="160" height="40" as="geometry" />
        </mxCell>
        <mxCell id="Eudr2HJVChkKzcNzHswi-92" value="15" style="shape=offPageConnector;whiteSpace=wrap;html=1;fontFamily=Verdana;" vertex="1" parent="1">
          <mxGeometry x="743.5" y="1645" width="37.5" height="40" as="geometry" />
        </mxCell>
        <mxCell id="Eudr2HJVChkKzcNzHswi-99" value="" style="edgeStyle=orthogonalEdgeStyle;rounded=0;orthogonalLoop=1;jettySize=auto;html=1;" edge="1" parent="1" source="Eudr2HJVChkKzcNzHswi-97" target="Eudr2HJVChkKzcNzHswi-98">
          <mxGeometry relative="1" as="geometry" />
        </mxCell>
        <mxCell id="Eudr2HJVChkKzcNzHswi-97" value="15" style="shape=offPageConnector;whiteSpace=wrap;html=1;fontFamily=Verdana;" vertex="1" parent="1">
          <mxGeometry x="1140" y="1129" width="37.5" height="40" as="geometry" />
        </mxCell>
        <mxCell id="Eudr2HJVChkKzcNzHswi-103" value="" style="edgeStyle=orthogonalEdgeStyle;rounded=0;orthogonalLoop=1;jettySize=auto;html=1;" edge="1" parent="1" source="Eudr2HJVChkKzcNzHswi-98" target="Eudr2HJVChkKzcNzHswi-102">
          <mxGeometry relative="1" as="geometry" />
        </mxCell>
        <mxCell id="Eudr2HJVChkKzcNzHswi-98" value="D[1E] &amp;lt;= R[12]" style="rounded=1;whiteSpace=wrap;html=1;fontFamily=Verdana;" vertex="1" parent="1">
          <mxGeometry x="1078.75" y="1200" width="160" height="40" as="geometry" />
        </mxCell>
        <mxCell id="Eudr2HJVChkKzcNzHswi-105" value="" style="edgeStyle=orthogonalEdgeStyle;rounded=0;orthogonalLoop=1;jettySize=auto;html=1;" edge="1" parent="1" source="Eudr2HJVChkKzcNzHswi-102" target="Eudr2HJVChkKzcNzHswi-104">
          <mxGeometry relative="1" as="geometry" />
        </mxCell>
        <mxCell id="Eudr2HJVChkKzcNzHswi-107" style="edgeStyle=orthogonalEdgeStyle;rounded=0;orthogonalLoop=1;jettySize=auto;html=1;exitX=1;exitY=0.5;exitDx=0;exitDy=0;entryX=0.5;entryY=0;entryDx=0;entryDy=0;" edge="1" parent="1" source="Eudr2HJVChkKzcNzHswi-102" target="Eudr2HJVChkKzcNzHswi-106">
          <mxGeometry relative="1" as="geometry" />
        </mxCell>
        <mxCell id="Eudr2HJVChkKzcNzHswi-102" value="CARRY&amp;nbsp;&lt;br&gt;?" style="rhombus;whiteSpace=wrap;html=1;fontFamily=Verdana;" vertex="1" parent="1">
          <mxGeometry x="1111.25" y="1280" width="95" height="80" as="geometry" />
        </mxCell>
        <mxCell id="Eudr2HJVChkKzcNzHswi-104" value="16" style="shape=offPageConnector;whiteSpace=wrap;html=1;fontFamily=Verdana;" vertex="1" parent="1">
          <mxGeometry x="1140" y="1400" width="37.5" height="40" as="geometry" />
        </mxCell>
        <mxCell id="Eudr2HJVChkKzcNzHswi-106" value="9" style="shape=offPageConnector;whiteSpace=wrap;html=1;fontFamily=Verdana;" vertex="1" parent="1">
          <mxGeometry x="1238.5" y="1340" width="37.5" height="40" as="geometry" />
        </mxCell>
        <mxCell id="Eudr2HJVChkKzcNzHswi-109" value="NÃO" style="text;html=1;strokeColor=none;fillColor=none;align=center;verticalAlign=middle;whiteSpace=wrap;rounded=0;fontFamily=Verdana;" vertex="1" parent="1">
          <mxGeometry x="1201" y="1295" width="40" height="20" as="geometry" />
        </mxCell>
        <mxCell id="Eudr2HJVChkKzcNzHswi-110" value="SIM" style="text;html=1;strokeColor=none;fillColor=none;align=center;verticalAlign=middle;whiteSpace=wrap;rounded=0;fontFamily=Verdana;" vertex="1" parent="1">
          <mxGeometry x="340" y="893" width="40" height="20" as="geometry" />
        </mxCell>
        <mxCell id="Eudr2HJVChkKzcNzHswi-111" value="SIM" style="text;html=1;strokeColor=none;fillColor=none;align=center;verticalAlign=middle;whiteSpace=wrap;rounded=0;fontFamily=Verdana;" vertex="1" parent="1">
          <mxGeometry x="670" y="920" width="40" height="20" as="geometry" />
        </mxCell>
        <mxCell id="Eudr2HJVChkKzcNzHswi-112" value="SIM" style="text;html=1;strokeColor=none;fillColor=none;align=center;verticalAlign=middle;whiteSpace=wrap;rounded=0;fontFamily=Verdana;" vertex="1" parent="1">
          <mxGeometry x="991.25" y="923" width="40" height="20" as="geometry" />
        </mxCell>
        <mxCell id="Eudr2HJVChkKzcNzHswi-113" value="SIM" style="text;html=1;strokeColor=none;fillColor=none;align=center;verticalAlign=middle;whiteSpace=wrap;rounded=0;fontFamily=Verdana;" vertex="1" parent="1">
          <mxGeometry x="1310" y="920" width="40" height="20" as="geometry" />
        </mxCell>
        <mxCell id="Eudr2HJVChkKzcNzHswi-114" value="SIM" style="text;html=1;strokeColor=none;fillColor=none;align=center;verticalAlign=middle;whiteSpace=wrap;rounded=0;fontFamily=Verdana;" vertex="1" parent="1">
          <mxGeometry x="340" y="1510" width="40" height="20" as="geometry" />
        </mxCell>
        <mxCell id="Eudr2HJVChkKzcNzHswi-115" value="SIM" style="text;html=1;strokeColor=none;fillColor=none;align=center;verticalAlign=middle;whiteSpace=wrap;rounded=0;fontFamily=Verdana;" vertex="1" parent="1">
          <mxGeometry x="762.5" y="1510" width="40" height="20" as="geometry" />
        </mxCell>
        <mxCell id="Eudr2HJVChkKzcNzHswi-116" value="SIM" style="text;html=1;strokeColor=none;fillColor=none;align=center;verticalAlign=middle;whiteSpace=wrap;rounded=0;fontFamily=Verdana;" vertex="1" parent="1">
          <mxGeometry x="1160" y="1370" width="40" height="20" as="geometry" />
        </mxCell>
      </root>
    </mxGraphModel>
  </diagram>
</mxfile>
